<?xml version="1.0" encoding="UTF-8" standalone="no"?>
<!-- Created with Inkscape (http://www.inkscape.org/) -->

<svg
   xmlns:dc="http://purl.org/dc/elements/1.1/"
   xmlns:cc="http://creativecommons.org/ns#"
   xmlns:rdf="http://www.w3.org/1999/02/22-rdf-syntax-ns#"
   xmlns:svg="http://www.w3.org/2000/svg"
   xmlns="http://www.w3.org/2000/svg"
   xmlns:sodipodi="http://sodipodi.sourceforge.net/DTD/sodipodi-0.dtd"
   xmlns:inkscape="http://www.inkscape.org/namespaces/inkscape"
   width="16"
   height="19"
   viewBox="0 0 16 19"
   id="svg4162"
   version="1.1"
   inkscape:version="0.91 r13725"
   sodipodi:docname="vkontakte.svg">
  <defs
     id="defs4164" />
  <sodipodi:namedview
     id="base"
     pagecolor="#ffffff"
     bordercolor="#666666"
     borderopacity="1.0"
     inkscape:pageopacity="0.0"
     inkscape:pageshadow="2"
     inkscape:zoom="8"
     inkscape:cx="-27.830065"
     inkscape:cy="10.576531"
     inkscape:document-units="px"
     inkscape:current-layer="layer1"
     showgrid="false"
     units="px"
     inkscape:window-width="1680"
     inkscape:window-height="984"
     inkscape:window-x="0"
     inkscape:window-y="27"
     inkscape:window-maximized="1" />
  <metadata
     id="metadata4167">
    <rdf:RDF>
      <cc:Work
         rdf:about="">
        <dc:format>image/svg+xml</dc:format>
        <dc:type
           rdf:resource="http://purl.org/dc/dcmitype/StillImage" />
        <dc:title></dc:title>
      </cc:Work>
    </rdf:RDF>
  </metadata>
  <g
     inkscape:label="Layer 1"
     inkscape:groupmode="layer"
     id="layer1"
     transform="translate(0,-1033.3622)">
    <path
       style="color:#000000;clip-rule:nonzero;display:inline;overflow:visible;visibility:visible;opacity:1;isolation:auto;mix-blend-mode:normal;color-interpolation:sRGB;color-interpolation-filters:linearRGB;solid-color:#000000;solid-opacity:1;fill:#000000;fill-opacity:1;fill-rule:nonzero;stroke:none;stroke-width:1;stroke-linecap:butt;stroke-linejoin:miter;stroke-miterlimit:4;stroke-dasharray:none;stroke-dashoffset:0;stroke-opacity:1;marker:none;color-rendering:auto;image-rendering:auto;shape-rendering:auto;text-rendering:auto;enable-background:accumulate"
       d="m 2,1035.3627 0,15.9995 6.4040288,0 c 1.1102443,0 2.0257002,-0.1 2.7453432,-0.301 0.720007,-0.2003 1.381067,-0.537 1.982504,-1.0094 0.508808,-0.3939 0.913537,-0.8924 1.214384,-1.4941 0.300715,-0.6014 0.451213,-1.2998 0.451213,-2.0952 0,-1.0885 -0.297238,-1.9541 -0.891841,-2.5953 -0.594487,-0.6408 -1.386228,-1.0654 -2.37468,-1.2732 l 0,-0.087 c 0.687715,-0.2861 1.226651,-0.7337 1.617129,-1.343 0.390247,-0.6087 0.58553,-1.3035 0.58553,-2.0842 0,-0.6735 -0.141291,-1.2675 -0.424257,-1.7841 -0.283083,-0.5158 -0.711059,-0.9278 -1.284175,-1.2355 -0.530289,-0.2863 -1.097582,-0.4744 -1.702984,-0.5636 -0.6054008,-0.09 -1.4953682,-0.1348 -2.6704135,-0.1348 L 2,1035.3627 Z m 3.997267,2.9336 0.279364,0 c 0.7162853,0 1.2552855,0.01 1.6169715,0.02 0.361803,0.014 0.6751455,0.076 0.9404702,0.188 0.2793623,0.1216 0.4848916,0.319 0.6176128,0.591 0.1326044,0.2724 0.1989751,0.5372 0.1989751,0.7945 0,0.3512 -0.061193,0.6596 -0.1827687,0.9244 -0.122042,0.2657 -0.3438004,0.4732 -0.666241,0.6233 -0.2937567,0.1364 -0.5783681,0.2112 -0.8541298,0.226 -0.2757622,0.017 -0.7577262,0.022 -1.4454486,0.022 l -0.5048055,0 0,-3.3842 z m 0,6.1246 0.7413308,0 c 0.7162815,0 1.2876473,0.01 1.7138977,0.02 0.4261179,0.014 0.7610418,0.064 1.0046519,0.1556 0.4011542,0.1432 0.7019486,0.3545 0.9025926,0.6337 0.200638,0.2799 0.30103,0.6665 0.301039,1.161 0,0.3865 -0.08461,0.7323 -0.252738,1.0366 -0.168243,0.3044 -0.4350247,0.5358 -0.8005518,0.693 -0.4155621,0.1793 -0.8235173,0.2759 -1.2247926,0.2903 -0.4011679,0.019 -1.124839,0.022 -2.1704079,0.022 l -0.2150217,0 0,-4.0076 z"
       id="icon"
       inkscape:connector-curvature="0"
       inkscape:label="#rect4149" />
  </g>
</svg>
