<?xml version="1.0" encoding="UTF-8" standalone="no"?>
<!-- Created with Inkscape (http://www.inkscape.org/) -->

<svg
   xmlns:dc="http://purl.org/dc/elements/1.1/"
   xmlns:cc="http://creativecommons.org/ns#"
   xmlns:rdf="http://www.w3.org/1999/02/22-rdf-syntax-ns#"
   xmlns:svg="http://www.w3.org/2000/svg"
   xmlns="http://www.w3.org/2000/svg"
   xmlns:sodipodi="http://sodipodi.sourceforge.net/DTD/sodipodi-0.dtd"
   xmlns:inkscape="http://www.inkscape.org/namespaces/inkscape"
   width="21"
   height="26"
   viewBox="0 0 21 26"
   id="svg4162"
   version="1.1"
   inkscape:version="0.91 r13725"
   sodipodi:docname="vkontakte.svg">
  <defs
     id="defs4164" />
  <sodipodi:namedview
     id="base"
     pagecolor="#ffffff"
     bordercolor="#666666"
     borderopacity="1.0"
     inkscape:pageopacity="0.0"
     inkscape:pageshadow="2"
     inkscape:zoom="1"
     inkscape:cx="-74.519813"
     inkscape:cy="39.320834"
     inkscape:document-units="px"
     inkscape:current-layer="layer1"
     showgrid="false"
     units="px"
     inkscape:window-width="1680"
     inkscape:window-height="984"
     inkscape:window-x="0"
     inkscape:window-y="27"
     inkscape:window-maximized="1" />
  <metadata
     id="metadata4167">
    <rdf:RDF>
      <cc:Work
         rdf:about="">
        <dc:format>image/svg+xml</dc:format>
        <dc:type
           rdf:resource="http://purl.org/dc/dcmitype/StillImage" />
        <dc:title></dc:title>
      </cc:Work>
    </rdf:RDF>
  </metadata>
  <g
     inkscape:label="Layer 1"
     inkscape:groupmode="layer"
     id="layer1"
     transform="translate(0,-1026.3622)">
    <path
       style="color:#000000;clip-rule:nonzero;display:inline;overflow:visible;visibility:visible;opacity:1;isolation:auto;mix-blend-mode:normal;color-interpolation:sRGB;color-interpolation-filters:linearRGB;solid-color:#000000;solid-opacity:1;fill:#647f90;fill-opacity:1;fill-rule:nonzero;stroke:none;stroke-width:1;stroke-linecap:butt;stroke-linejoin:miter;stroke-miterlimit:4;stroke-dasharray:none;stroke-dashoffset:0;stroke-opacity:1;marker:none;color-rendering:auto;image-rendering:auto;shape-rendering:auto;text-rendering:auto;enable-background:accumulate"
       d="m 2,1028.8584 0,22.5038 9.007444,0 c 1.561594,0 2.849203,-0.141 3.8614,-0.4234 1.012709,-0.2816 1.942506,-0.7552 2.788445,-1.4202 0.715654,-0.5542 1.284919,-1.2548 1.708067,-2.1011 0.42297,-0.8464 0.634644,-1.8286 0.634644,-2.9469 0,-1.5311 -0.418074,-2.7481 -1.2544,-3.6499 -0.83616,-0.9015 -1.949772,-1.4988 -3.340057,-1.7911 l 0,-0.121 c 0.967303,-0.4027 1.725326,-1.0324 2.274543,-1.889 0.548896,-0.8562 0.823559,-1.8336 0.823559,-2.9318 0,-0.9471 -0.198728,-1.7833 -0.596732,-2.509 -0.398157,-0.7254 -1.000118,-1.3047 -1.806227,-1.7378 -0.745861,-0.4032 -1.543775,-0.6675 -2.39529,-0.7934 -0.851513,-0.1261 -2.103271,-0.1892 -3.756009,-0.1892 l -7.949387,0 z m 5.6222668,4.126 0.3929331,0 c 1.0074751,0 1.7655941,0.01 2.2743151,0.023 0.508884,0.015 0.949614,0.1033 1.322796,0.2642 0.39293,0.1719 0.682017,0.4487 0.86869,0.8313 0.186507,0.3831 0.279866,0.7558 0.279866,1.1183 0,0.494 -0.08609,0.9271 -0.257068,1.2998 -0.171653,0.3731 -0.483562,0.6651 -0.937084,0.8766 -0.413179,0.1916 -0.813493,0.2972 -1.201362,0.3176 -0.387867,0.02 -1.065763,0.03 -2.0330628,0.03 l -0.7100234,0 0,-4.7605 z m 0,8.6148 1.042703,0 c 1.0074692,0 1.8111102,0.01 2.4106412,0.022 0.599354,0.015 1.070433,0.088 1.413072,0.219 0.564238,0.2016 0.987314,0.4987 1.269528,0.8917 0.282202,0.3931 0.4234,0.9369 0.423411,1.6325 0,0.5438 -0.119016,1.0303 -0.355479,1.4583 -0.236641,0.4281 -0.611871,0.7531 -1.126,0.9744 -0.584498,0.2522 -1.1583,0.3882 -1.722703,0.408 -0.564251,0.02 -1.582118,0.031 -3.0527386,0.031 l -0.3024346,0 0,-5.6375 z"
       id="rect4149"
       inkscape:connector-curvature="0" />
  </g>
</svg>
