<?xml version="1.0" encoding="UTF-8" standalone="no"?>
<!-- Created with Inkscape (http://www.inkscape.org/) -->

<svg
   xmlns:dc="http://purl.org/dc/elements/1.1/"
   xmlns:cc="http://creativecommons.org/ns#"
   xmlns:rdf="http://www.w3.org/1999/02/22-rdf-syntax-ns#"
   xmlns:svg="http://www.w3.org/2000/svg"
   xmlns="http://www.w3.org/2000/svg"
   xmlns:sodipodi="http://sodipodi.sourceforge.net/DTD/sodipodi-0.dtd"
   xmlns:inkscape="http://www.inkscape.org/namespaces/inkscape"
   width="21"
   height="21"
   viewBox="0 0 21 21"
   id="svg4146"
   version="1.1"
   inkscape:version="0.91 r13725"
   sodipodi:docname="lens.svg">
  <defs
     id="defs4148" />
  <sodipodi:namedview
     id="base"
     pagecolor="#ffffff"
     bordercolor="#666666"
     borderopacity="1.0"
     inkscape:pageopacity="0.0"
     inkscape:pageshadow="2"
     inkscape:zoom="1.0472656"
     inkscape:cx="222.22119"
     inkscape:cy="176.24767"
     inkscape:document-units="px"
     inkscape:current-layer="layer1"
     showgrid="false"
     units="px"
     inkscape:window-width="1680"
     inkscape:window-height="984"
     inkscape:window-x="0"
     inkscape:window-y="27"
     inkscape:window-maximized="1" />
  <metadata
     id="metadata4151">
    <rdf:RDF>
      <cc:Work
         rdf:about="">
        <dc:format>image/svg+xml</dc:format>
        <dc:type
           rdf:resource="http://purl.org/dc/dcmitype/StillImage" />
        <dc:title></dc:title>
      </cc:Work>
    </rdf:RDF>
  </metadata>
  <g
     inkscape:label="Layer 1"
     inkscape:groupmode="layer"
     id="layer1"
     transform="translate(0,-1031.3622)">
    <path
       inkscape:connector-curvature="0"
       style="fill:#0d202e"
       d="m 20.258,1049.9472 -5.487,-5.488 c 0.924,-1.183 1.479,-2.659 1.479,-4.264 0,-3.872 -3.196,-7.022 -7.124,-7.022 -3.93,0 -7.126,3.15 -7.126,7.022 0,3.871 3.196,7.02 7.126,7.02 1.574,0 3.025,-0.512 4.206,-1.367 l 5.513,5.514 1.413,-1.415 z m -11.133,-4.732 c -2.826,0 -5.126,-2.252 -5.126,-5.02 0,-2.769 2.3,-5.022 5.126,-5.022 2.825,0 5.124,2.253 5.124,5.022 0,2.768 -2.299,5.02 -5.124,5.02 z"
       id="path3" />
  </g>
</svg>
