<?xml version="1.0" encoding="UTF-8" standalone="no"?>
<!-- Generator: Adobe Illustrator 16.0.0, SVG Export Plug-In . SVG Version: 6.00 Build 0)  -->

<svg
   xmlns:dc="http://purl.org/dc/elements/1.1/"
   xmlns:cc="http://creativecommons.org/ns#"
   xmlns:rdf="http://www.w3.org/1999/02/22-rdf-syntax-ns#"
   xmlns:svg="http://www.w3.org/2000/svg"
   xmlns="http://www.w3.org/2000/svg"
   xmlns:sodipodi="http://sodipodi.sourceforge.net/DTD/sodipodi-0.dtd"
   xmlns:inkscape="http://www.inkscape.org/namespaces/inkscape"
   version="1.1"
   id="Layer_1"
   x="0px"
   y="0px"
   width="55"
   height="55"
   viewBox="0 0 55 55"
   enable-background="new 0 0 50 50"
   xml:space="preserve"
   inkscape:version="0.48.5 r10040"
   sodipodi:docname="show-menu.svg"><metadata
     id="metadata9"><rdf:RDF><cc:Work
         rdf:about=""><dc:format>image/svg+xml</dc:format><dc:type
           rdf:resource="http://purl.org/dc/dcmitype/StillImage" /><dc:title></dc:title></cc:Work></rdf:RDF></metadata><defs
     id="defs7" /><sodipodi:namedview
     pagecolor="#ffffff"
     bordercolor="#666666"
     borderopacity="1"
     objecttolerance="10"
     gridtolerance="10"
     guidetolerance="10"
     inkscape:pageopacity="0"
     inkscape:pageshadow="2"
     inkscape:window-width="1680"
     inkscape:window-height="986"
     id="namedview5"
     showgrid="false"
     inkscape:zoom="11.313708"
     inkscape:cx="33.366454"
     inkscape:cy="24.969686"
     inkscape:window-x="0"
     inkscape:window-y="25"
     inkscape:window-maximized="1"
     inkscape:current-layer="Layer_1" /><path
     clip-rule="evenodd"
     d="M 27.500001,54 C 12.864226,54 1,42.135775 1,27.5 1,12.864225 12.864226,1 27.500001,1 42.135776,1 54,12.864225 54,27.5 54,42.135775 42.135776,54 27.500001,54 z m 0,-50.2232108 C 14.3967,3.7767892 3.7767899,14.396698 3.7767899,27.5 c 0,13.103302 10.6199101,23.724521 23.7232111,23.724521 13.101992,0 23.723211,-10.621219 23.723211,-23.724521 0,-13.103302 -10.621219,-23.7232108 -23.723211,-23.7232108 z M 16.402013,32.830911 h 22.203835 v 2.619613 H 16.402013 v -2.619613 z m 0,-6.549031 h 22.203835 v 2.619613 H 16.402013 V 26.28188 z m 0,-6.549031 h 22.203835 v 2.619612 H 16.402013 v -2.619612 z"
     id="path3"
     inkscape:connector-curvature="0"
     style="fill:#fad20c;fill-rule:evenodd;fill-opacity:1;stroke:none" /></svg>