<?xml version="1.0" standalone="no"?>
<!DOCTYPE svg PUBLIC "-//W3C//DTD SVG 1.1//EN" "http://www.w3.org/Graphics/SVG/1.1/DTD/svg11.dtd" >
<svg xmlns="http://www.w3.org/2000/svg" xmlns:xlink="http://www.w3.org/1999/xlink" version="1.1">
<metadata>
Created by FontForge 20140906 at Sun Nov 16 00:32:17 2014
 By cloudconvert
Copyright (C) 1998; Type Market Ltd. Russia, Moscow, 119136, Box 20; phone:(095)1427712
</metadata>
<defs>
<font id="SansRoundedLightC" horiz-adv-x="535" >
  <font-face 
    font-family="SansRoundedLightC"
    font-weight="300"
    font-stretch="normal"
    units-per-em="1000"
    panose-1="0 0 4 0 0 0 0 0 0 0"
    ascent="763"
    descent="-237"
    x-height="533"
    cap-height="713"
    bbox="-55 -237 994 988"
    underline-thickness="12"
    underline-position="-12"
    stemh="76"
    stemv="82"
    unicode-range="U+0020-2122"
  />
<missing-glyph horiz-adv-x="500" 
 />
    <glyph glyph-name=".notdef" horiz-adv-x="500" 
 />
    <glyph glyph-name="space" unicode=" " horiz-adv-x="240" 
 />
    <glyph glyph-name="space" unicode="&#xa0;" horiz-adv-x="240" 
 />
    <glyph glyph-name="exclam" unicode="!" horiz-adv-x="277" 
d="M146 717c26 0 45 -16 45 -43v-436c0 -30 -15 -49 -45 -49c-23 0 -42 21 -42 47v438c0 26 18 43 42 43zM148 96c30 0 51 -24 51 -51s-23 -51 -51 -51c-26 0 -51 24 -51 51c0 26 21 51 51 51z" />
    <glyph glyph-name="quotedbl" unicode="&#x22;" horiz-adv-x="342" 
d="M100 719c24 0 41 -17 41 -43v-141c0 -25 -18 -39 -43 -39c-26 0 -39 15 -39 39v141c0 26 17 43 41 43zM242 719c24 0 41 -17 41 -43v-141c0 -25 -18 -39 -43 -39c-26 0 -39 15 -39 39v141c0 26 17 43 41 43z" />
    <glyph glyph-name="numbersign" unicode="#" 
d="M229 496h117l27 188c4 24 12 35 37 35c22 0 35 -15 35 -40c0 -7 -3 -27 -5 -40l-20 -143h62c24 0 41 -14 41 -35c0 -19 -17 -32 -41 -32h-70l-21 -146h62c26 0 39 -13 39 -35c0 -19 -15 -32 -37 -32h-74l-26 -183c-4 -28 -10 -39 -39 -39c-21 0 -34 14 -34 37
c0 5 2 21 4 36l23 149h-120l-26 -183c-4 -28 -10 -39 -39 -39c-21 0 -34 14 -34 37c0 5 2 21 4 36l23 149h-66c-19 0 -39 14 -39 32s16 35 43 35h70l21 146h-64c-19 0 -41 15 -41 32c0 18 18 35 39 35h75l27 188c4 24 12 35 37 35c22 0 35 -15 35 -40c0 -7 -3 -27 -5 -40z
M199 283h117l22 146h-119z" />
    <glyph glyph-name="dollar" unicode="$" horiz-adv-x="463" 
d="M238 785c15 0 22 -6 22 -19v-47c73 -9 152 -34 152 -84c0 -21 -17 -39 -41 -39c-13 0 -81 47 -111 47v-219c126 -46 201 -96 201 -213c0 -112 -93 -202 -201 -213v-51c0 -13 -9 -21 -22 -21c-10 0 -19 9 -19 21v47c-98 0 -199 47 -199 88c0 22 16 41 35 41
c53 0 53 -45 164 -53v278c-106 30 -192 78 -192 191c0 89 94 176 192 180v49c0 12 9 17 19 17zM219 439v204c-54 -5 -98 -45 -98 -100c0 -46 33 -81 98 -104zM260 332v-258c65 12 107 72 107 139c0 63 -34 92 -107 119z" />
    <glyph glyph-name="percent" unicode="%" horiz-adv-x="744" 
d="M546 278c-61 0 -86 -63 -86 -117c0 -60 31 -113 86 -113c50 0 86 42 86 113c0 62 -26 117 -86 117zM548 332c94 0 151 -76 151 -174c0 -93 -58 -164 -153 -164c-88 0 -153 68 -153 164s52 174 155 174zM198 665c-61 0 -86 -63 -86 -117c0 -60 31 -113 86 -113
c50 0 86 42 86 113c0 62 -26 117 -86 117zM200 719c94 0 151 -76 151 -174c0 -93 -58 -164 -153 -164c-88 0 -153 68 -153 164s52 174 155 174zM513 727c17 0 35 -8 35 -28c0 -5 -3 -17 -7 -26l-274 -663c-7 -16 -18 -24 -37 -24c-18 0 -34 10 -34 23c0 5 3 16 8 28l276 662
c8 18 18 28 33 28z" />
    <glyph glyph-name="ampersand" unicode="&#x26;" horiz-adv-x="668" 
d="M270 473c62 32 93 68 93 107c0 42 -39 72 -82 72c-45 0 -77 -32 -77 -76c0 -26 18 -56 66 -103zM426 168l-182 209c-79 -42 -122 -102 -122 -166c0 -74 57 -135 138 -135c63 0 126 35 166 92zM195 434c-54 54 -78 91 -78 154c0 87 82 131 164 131s169 -45 169 -131
c0 -67 -45 -125 -132 -170l159 -189c43 54 68 130 105 130c24 0 37 -9 37 -29c0 -63 -55 -109 -92 -158l92 -111c8 -10 12 -21 12 -34c0 -18 -21 -33 -39 -33c-12 0 -21 5 -29 14l-86 101c-57 -72 -133 -115 -225 -115c-121 0 -217 88 -217 209c0 102 47 164 160 231z" />
    <glyph glyph-name="quotesingle" unicode="'" horiz-adv-x="200" 
d="M100 719c24 0 41 -17 41 -43v-141c0 -25 -18 -39 -43 -39c-26 0 -39 15 -39 39v141c0 26 17 43 41 43z" />
    <glyph glyph-name="parenleft" unicode="(" horiz-adv-x="203" 
d="M138 736c18 0 31 -11 31 -33c0 -23 -55 -142 -55 -373c0 -259 57 -386 57 -396c0 -19 -20 -34 -37 -34c-16 0 -29 11 -39 34c-42 91 -63 215 -63 371c0 161 20 292 61 394c10 25 23 37 45 37z" />
    <glyph glyph-name="parenright" unicode=")" horiz-adv-x="203" 
d="M65 736c22 0 35 -12 45 -37c41 -102 61 -233 61 -394c0 -156 -21 -280 -63 -371c-10 -23 -23 -34 -39 -34c-17 0 -37 15 -37 34c0 10 57 137 57 396c0 231 -55 350 -55 373c0 22 13 33 31 33z" />
    <glyph glyph-name="asterisk" unicode="*" horiz-adv-x="389" 
d="M170 580c0 20 -12 93 -12 101c0 20 15 38 37 38s35 -13 35 -35c0 -19 -9 -76 -9 -104c36 35 69 63 97 63c20 0 34 -16 34 -36c0 -12 -6 -21 -20 -27l-92 -39l96 -39c12 -5 18 -13 18 -29c0 -18 -14 -35 -36 -35c-8 0 -21 5 -33 15l-64 51c0 -32 9 -81 9 -98
c0 -27 -16 -43 -37 -43c-22 0 -35 24 -35 36s12 35 12 105c-48 -42 -78 -66 -100 -66c-16 0 -33 20 -33 37c0 11 8 22 20 27l93 39l-70 24c-28 9 -45 30 -45 42c0 21 17 36 37 36c24 0 60 -27 98 -63z" />
    <glyph glyph-name="plus" unicode="+" horiz-adv-x="600" 
d="M260 295v174c0 25 18 39 41 39s41 -14 41 -39v-174h174c22 0 39 -19 39 -41c0 -23 -16 -41 -41 -41h-172v-174c0 -22 -19 -39 -41 -39c-23 0 -41 17 -41 41v172h-176c-23 0 -37 20 -37 41s12 41 37 41h176z" />
    <glyph glyph-name="comma" unicode="," horiz-adv-x="234" 
d="M135 96c23 0 39 -15 39 -39c0 -10 -3 -25 -9 -36l-61 -119c-9 -18 -25 -29 -45 -29s-39 17 -39 39c0 8 7 25 15 41l59 115c10 19 24 28 41 28z" />
    <glyph glyph-name="hyphen" unicode="-" horiz-adv-x="352" 
d="M74 306h201c23 0 37 -17 37 -39c0 -21 -15 -37 -37 -37h-201c-23 0 -37 16 -37 37s12 39 37 39z" />
    <glyph glyph-name="hyphen" unicode="&#xad;" horiz-adv-x="352" 
d="M74 306h201c23 0 37 -17 37 -39c0 -21 -15 -37 -37 -37h-201c-23 0 -37 16 -37 37s12 39 37 39z" />
    <glyph glyph-name="period" unicode="." horiz-adv-x="240" 
d="M125 96c30 0 51 -24 51 -51s-23 -51 -51 -51c-26 0 -51 24 -51 51c0 26 21 51 51 51z" />
    <glyph glyph-name="slash" unicode="/" horiz-adv-x="406" 
d="M348 719c21 0 39 -15 39 -37c0 -5 -1 -12 -4 -20l-283 -637c-9 -21 -22 -31 -43 -31c-20 0 -39 16 -39 37c0 6 2 17 5 24l284 634c8 18 23 30 41 30z" />
    <glyph glyph-name="zero" unicode="0" 
d="M270 719c171 0 234 -204 234 -352c0 -164 -58 -373 -234 -373c-186 0 -237 216 -237 375c0 144 65 350 237 350zM266 643c-109 0 -139 -175 -139 -278c0 -105 20 -295 143 -295c112 0 140 171 140 278c0 122 -21 295 -144 295z" />
    <glyph glyph-name="one" unicode="1" horiz-adv-x="352" 
d="M164 637h-90c-21 0 -41 16 -41 37c0 24 19 39 43 39h147c21 0 28 -10 28 -29v-643c0 -28 -16 -47 -44 -47c-24 0 -43 20 -43 47v596z" />
    <glyph glyph-name="two" unicode="2" 
d="M90 440c-24 0 -39 20 -39 56c0 132 94 223 228 223c105 0 192 -82 192 -186c0 -49 -17 -96 -53 -144l-236 -313h271c25 0 37 -13 37 -39c0 -22 -15 -37 -39 -37h-351c-19 0 -43 10 -43 31c0 10 6 25 11 32l270 363c25 33 37 68 37 105c0 64 -52 112 -113 112
c-77 0 -127 -74 -127 -147c0 -36 -15 -56 -45 -56z" />
    <glyph glyph-name="three" unicode="3" 
d="M107 494c-21 0 -41 19 -41 63c0 75 70 162 198 162c99 0 173 -88 173 -186c0 -59 -29 -117 -82 -150c80 -23 115 -93 115 -174c0 -118 -77 -215 -230 -215c-118 0 -201 93 -201 166c0 24 18 47 43 47c21 0 35 -13 43 -39c19 -58 66 -98 121 -98c65 0 137 52 137 123
c0 96 -40 143 -121 143c-37 0 -59 13 -59 35c0 27 22 33 61 43c60 15 86 58 86 129c0 54 -42 100 -100 100c-71 0 -102 -55 -102 -104c0 -25 -20 -45 -41 -45z" />
    <glyph glyph-name="four" unicode="4" 
d="M355 719c43 0 66 -29 66 -71v-388h46c23 0 39 -19 39 -41s-17 -35 -43 -35h-42v-143c0 -28 -17 -47 -44 -47c-25 0 -43 19 -43 45v145h-283c-26 0 -43 9 -43 25c0 10 9 31 21 51l258 418c21 34 36 41 68 41zM334 260v365h-2l-209 -365h211z" />
    <glyph glyph-name="five" unicode="5" 
d="M180 713h252c23 0 37 -17 37 -39c0 -21 -16 -37 -39 -37h-201l-30 -194c30 14 59 20 90 20c120 0 186 -106 186 -221c0 -136 -82 -248 -229 -248c-126 0 -203 71 -203 117c0 20 13 37 31 37c17 0 26 -4 44 -23c26 -27 78 -49 124 -49c78 0 139 59 139 147
c0 89 -36 158 -125 158c-50 0 -95 -27 -121 -27c-18 0 -30 13 -30 31c0 3 2 14 3 20l42 282c3 20 5 26 30 26z" />
    <glyph glyph-name="six" unicode="6" 
d="M189 432h2c37 19 73 29 110 29c122 0 183 -125 183 -240c0 -125 -94 -227 -220 -227c-131 0 -213 116 -213 254c0 193 123 343 258 457c10 9 21 14 31 14c23 0 35 -22 35 -43c0 -17 -17 -38 -38 -54c-46 -35 -90 -88 -148 -190zM270 385c-71 0 -127 -44 -127 -156
c0 -89 41 -153 121 -153c88 0 126 72 126 156c0 96 -47 153 -120 153z" />
    <glyph glyph-name="seven" unicode="7" horiz-adv-x="480" 
d="M367 643h-299c-27 0 -45 12 -45 37c0 22 18 39 43 39h364c30 0 45 -8 45 -24c0 -6 -3 -18 -10 -35l-276 -627c-12 -27 -28 -39 -54 -39c-20 0 -35 14 -35 35c0 7 3 21 9 35z" />
    <glyph glyph-name="eight" unicode="8" 
d="M266 357c-77 0 -123 -71 -123 -144s48 -143 123 -143c86 0 127 70 127 145c0 70 -41 142 -127 142zM271 643c-62 0 -103 -39 -103 -104c0 -62 34 -106 102 -106c64 0 99 48 99 108c0 59 -41 102 -98 102zM180 398c-60 30 -94 92 -94 153c0 94 74 168 178 168
c109 0 187 -67 187 -168c0 -64 -34 -126 -94 -155c86 -18 130 -95 130 -179c0 -116 -87 -223 -217 -223c-128 0 -221 100 -221 225c0 82 45 158 131 179z" />
    <glyph glyph-name="nine" unicode="9" 
d="M346 281h-2c-29 -17 -71 -29 -108 -29c-139 0 -185 140 -185 232c0 132 91 235 220 235c134 0 211 -121 211 -256c0 -178 -123 -348 -255 -455c-11 -9 -23 -14 -34 -14c-20 0 -35 21 -35 39c0 24 54 63 92 106c29 33 70 92 96 142zM271 637c-87 0 -126 -70 -126 -156
c0 -89 41 -153 121 -153c72 0 129 46 129 154c0 83 -41 155 -124 155z" />
    <glyph glyph-name="colon" unicode=":" horiz-adv-x="240" 
d="M125 96c30 0 51 -24 51 -51s-23 -51 -51 -51c-26 0 -51 24 -51 51c0 26 21 51 51 51zM125 432c30 0 51 -24 51 -51s-23 -51 -51 -51c-26 0 -51 24 -51 51c0 26 21 51 51 51z" />
    <glyph glyph-name="semicolon" unicode=";" horiz-adv-x="240" 
d="M125 432c30 0 51 -24 51 -51s-23 -51 -51 -51c-26 0 -51 24 -51 51c0 26 21 51 51 51zM137 96c23 0 39 -15 39 -39c0 -10 -3 -25 -9 -36l-61 -119c-9 -18 -25 -29 -45 -29s-39 17 -39 39c0 8 7 25 15 41l59 115c10 19 24 28 41 28z" />
    <glyph glyph-name="less" unicode="&#x3c;" horiz-adv-x="600" 
d="M44 250c0 19 13 37 33 47l414 207c11 5 23 8 31 8c20 0 34 -13 34 -33c0 -19 -11 -31 -32 -41l-375 -184l381 -190c17 -8 24 -19 24 -37c0 -19 -14 -33 -34 -33c-4 0 -15 2 -27 8l-422 209c-17 9 -27 24 -27 39z" />
    <glyph glyph-name="equal" unicode="=" horiz-adv-x="600" 
d="M88 398h426c23 0 37 -17 37 -39c0 -21 -15 -37 -37 -37h-426c-23 0 -37 16 -37 37s12 39 37 39zM88 189h426c23 0 37 -17 37 -39c0 -21 -15 -37 -37 -37h-426c-23 0 -37 16 -37 37s12 39 37 39z" />
    <glyph glyph-name="greater" unicode="&#x3e;" horiz-adv-x="600" 
d="M556 250c0 -15 -10 -30 -27 -39l-422 -209c-12 -6 -23 -8 -27 -8c-20 0 -34 14 -34 33c0 18 7 29 24 37l381 190l-375 184c-21 10 -32 22 -32 41c0 20 14 33 34 33c8 0 20 -3 31 -8l414 -207c20 -10 33 -28 33 -47z" />
    <glyph glyph-name="question" unicode="?" horiz-adv-x="443" 
d="M215 96c30 0 51 -24 51 -51s-23 -51 -51 -51c-26 0 -51 24 -51 51c0 26 21 51 51 51zM55 518c-26 0 -37 22 -37 50c0 85 100 151 197 151c105 0 213 -72 213 -179c0 -109 -61 -179 -170 -202v-104c0 -26 -20 -45 -45 -45c-23 0 -42 21 -42 45v133c0 34 25 43 72 52
c43 8 87 39 87 102c0 69 -46 116 -117 116c-47 0 -93 -23 -105 -64c-10 -35 -27 -55 -53 -55z" />
    <glyph glyph-name="at" unicode="@" horiz-adv-x="801" 
d="M447 199h-4c-30 -36 -75 -58 -119 -58c-84 0 -145 76 -145 160c0 98 72 256 225 256c54 0 93 -25 117 -75l14 41c8 24 12 30 33 30c17 0 37 -6 37 -26c0 -5 -4 -23 -7 -34l-60 -205c-7 -25 -11 -44 -11 -50c0 -17 13 -30 28 -30c49 0 134 84 134 204
c0 147 -130 240 -287 240c-145 0 -291 -116 -291 -302c0 -162 138 -289 295 -289c102 0 154 20 229 82c22 18 40 27 53 27c14 0 25 -10 25 -24c0 -51 -154 -152 -309 -152c-189 0 -367 157 -367 356c0 222 189 369 367 369c183 0 361 -111 361 -299
c0 -163 -129 -279 -247 -279c-39 0 -67 22 -71 58zM424 481c-98 0 -158 -80 -158 -172c0 -54 42 -92 82 -92c84 0 136 112 136 191c0 47 -20 73 -60 73z" />
    <glyph glyph-name="A" unicode="A" horiz-adv-x="612" 
d="M168 230h277l-138 387h-2zM471 154h-330l-47 -129c-8 -22 -21 -33 -45 -33c-20 0 -41 15 -41 37c0 5 4 18 6 24l230 615c11 28 31 51 61 51c31 0 51 -19 62 -49l233 -617c3 -9 4 -19 4 -26c0 -24 -18 -35 -41 -35c-21 0 -37 12 -45 33z" />
    <glyph glyph-name="B" unicode="B" horiz-adv-x="548" 
d="M104 713h160c94 0 188 -69 188 -167c0 -65 -30 -138 -98 -159v-2c100 -17 153 -91 153 -179c0 -114 -97 -206 -224 -206h-176c-32 0 -48 17 -48 47v619c0 29 17 47 45 47zM146 637v-225h102c68 0 117 48 117 113c0 61 -41 112 -107 112h-112zM146 340v-264h118
c84 0 156 44 156 131c0 81 -62 133 -147 133h-127z" />
    <glyph glyph-name="C" unicode="C" horiz-adv-x="607" 
d="M522 572c-40 0 -58 71 -166 71c-155 0 -227 -149 -227 -280c0 -130 59 -293 213 -293c124 0 149 63 197 63c22 0 33 -17 33 -39c0 -75 -168 -100 -224 -100c-199 0 -313 169 -313 352c0 192 100 373 315 373c77 0 209 -40 209 -110c0 -17 -17 -37 -37 -37z" />
    <glyph glyph-name="D" unicode="D" horiz-adv-x="631" 
d="M146 637v-561h137c156 0 219 137 219 289c0 157 -86 272 -231 272h-125zM105 713h180c209 0 311 -174 311 -354c0 -187 -96 -359 -303 -359h-188c-26 0 -46 17 -46 39v627c0 31 15 47 46 47z" />
    <glyph glyph-name="E" unicode="E" horiz-adv-x="443" 
d="M146 631v-235h198c24 0 39 -17 39 -41c0 -23 -16 -41 -41 -41h-196v-232h219c25 0 37 -18 37 -43c0 -23 -17 -39 -43 -39h-257c-35 0 -43 25 -43 49v615c0 26 15 49 37 49h269c23 0 37 -19 37 -41c0 -23 -15 -41 -39 -41h-217z" />
    <glyph glyph-name="F" unicode="F" horiz-adv-x="413" 
d="M146 631v-235h190c25 0 39 -18 39 -42c0 -21 -15 -40 -37 -40h-192v-273c0 -27 -17 -47 -44 -47c-26 0 -43 19 -43 48v622c0 26 15 49 37 49h269c23 0 33 -22 33 -43c0 -24 -15 -39 -41 -39h-211z" />
    <glyph glyph-name="G" unicode="G" horiz-adv-x="685" 
d="M350 719c102 0 254 -45 254 -117c0 -21 -20 -39 -43 -39c-44 0 -80 80 -205 80c-149 0 -227 -136 -227 -280c0 -129 60 -293 213 -293c127 0 221 80 221 219v37h-127c-24 0 -41 13 -41 39c0 29 15 43 37 43h160c38 0 58 -22 58 -66v-23c0 -188 -85 -325 -302 -325
c-198 0 -313 178 -313 352c0 199 110 373 315 373z" />
    <glyph glyph-name="H" unicode="H" horiz-adv-x="668" 
d="M146 394h376v278c0 32 15 47 45 47c27 0 42 -18 42 -47v-629c0 -32 -15 -49 -42 -49c-30 0 -45 16 -45 47v277h-376v-275c0 -32 -15 -49 -42 -49c-30 0 -45 16 -45 47v631c0 32 15 47 45 47c27 0 42 -18 42 -47v-278z" />
    <glyph glyph-name="I" unicode="I" horiz-adv-x="205" 
d="M104 719c27 0 42 -18 42 -47v-629c0 -32 -15 -49 -42 -49c-30 0 -45 16 -45 47v631c0 32 15 47 45 47z" />
    <glyph glyph-name="J" unicode="J" horiz-adv-x="370" 
d="M26 109c43 0 43 -39 121 -39c52 0 77 38 77 98v504c0 32 15 47 45 47c27 0 42 -18 42 -47v-486c0 -90 -31 -192 -160 -192c-61 0 -160 30 -160 78c0 25 12 37 35 37z" />
    <glyph glyph-name="K" unicode="K" horiz-adv-x="560" 
d="M104 719c27 0 42 -18 42 -47v-260l315 289c14 12 27 18 39 18c24 0 37 -19 37 -41c0 -15 -6 -27 -17 -37l-293 -264l324 -313c10 -9 15 -19 15 -35c0 -22 -18 -35 -43 -35c-16 0 -28 5 -44 20l-333 326v-297c0 -32 -15 -49 -42 -49c-30 0 -45 16 -45 47v631
c0 32 15 47 45 47z" />
    <glyph glyph-name="L" unicode="L" horiz-adv-x="382" 
d="M104 719c28 0 42 -17 42 -51v-586h180c24 0 51 -13 51 -39c0 -28 -16 -43 -37 -43h-240c-27 0 -41 19 -41 53v619c0 27 18 47 45 47z" />
    <glyph glyph-name="M" unicode="M" horiz-adv-x="847" 
d="M206 719c33 0 55 -13 65 -47l152 -522h2l152 526c9 30 33 43 63 43c37 0 62 -20 68 -57l96 -565c3 -17 8 -41 8 -47c0 -43 -26 -56 -43 -56c-23 0 -42 15 -45 39l-82 574l-174 -578c-7 -24 -20 -35 -43 -35c-22 0 -38 12 -45 35l-172 578l-83 -570
c-4 -26 -24 -43 -49 -43c-23 0 -41 24 -41 51c0 6 4 32 6 43l99 570c7 38 31 61 66 61z" />
    <glyph glyph-name="N" unicode="N" horiz-adv-x="668" 
d="M96 719c20 0 37 -10 53 -32l372 -534h1v519c0 26 15 47 42 47s45 -19 45 -47v-635c0 -25 -14 -43 -39 -43c-18 0 -34 4 -49 26l-374 538h-1v-521c0 -26 -18 -43 -44 -43c-24 0 -43 20 -43 45v632c0 29 13 48 37 48z" />
    <glyph glyph-name="O" unicode="O" horiz-adv-x="695" 
d="M348 719c208 0 312 -182 312 -364c0 -202 -122 -361 -312 -361c-189 0 -313 161 -313 361s120 364 313 364zM348 643c-149 0 -219 -138 -219 -286c0 -140 59 -287 219 -287c155 0 218 144 218 287c0 151 -61 286 -218 286z" />
    <glyph glyph-name="P" unicode="P" horiz-adv-x="544" 
d="M102 713h177c140 0 230 -95 230 -223c0 -127 -98 -224 -218 -224h-145v-229c0 -25 -19 -43 -44 -43c-29 0 -43 23 -43 45v627c0 32 22 47 43 47zM146 637v-295h125c87 0 151 63 151 150c0 89 -61 145 -147 145h-129z" />
    <glyph glyph-name="Q" unicode="Q" horiz-adv-x="696" 
d="M348 719c193 0 313 -169 313 -364c0 -79 -22 -160 -63 -224l82 -82c6 -7 8 -16 8 -28c0 -19 -17 -33 -39 -33c-10 0 -20 3 -30 12l-72 70c-55 -50 -121 -76 -199 -76c-184 0 -313 153 -313 361c0 194 115 364 313 364zM348 643c-149 0 -219 -136 -219 -286
c0 -139 59 -287 219 -287c57 0 104 19 142 57l-64 62c-8 7 -16 22 -16 32c0 19 18 37 37 37c16 0 29 -6 43 -21l43 -44c23 51 34 105 34 164c0 161 -72 286 -219 286z" />
    <glyph glyph-name="R" unicode="R" 
d="M146 637v-254h124c80 0 128 41 128 129c0 73 -56 125 -132 125h-120zM102 713h171c110 0 212 -76 212 -213c0 -132 -103 -184 -231 -184l228 -250c12 -13 18 -25 18 -39c0 -19 -21 -33 -41 -33c-17 0 -30 8 -41 20l-272 299v-276c0 -26 -18 -43 -44 -43
c-25 0 -43 19 -43 45v627c0 32 22 47 43 47z" />
    <glyph glyph-name="S" unicode="S" horiz-adv-x="509" 
d="M255 719c70 0 172 -25 172 -84c0 -20 -18 -39 -41 -39s-86 47 -137 47c-64 0 -113 -44 -113 -104c0 -61 63 -90 140 -117c103 -36 198 -74 198 -205c0 -126 -99 -223 -238 -223c-73 0 -201 28 -201 90c0 23 15 41 39 41c27 0 72 -55 173 -55c74 0 133 68 133 139
c0 83 -80 113 -155 138c-101 34 -183 73 -183 184c0 112 110 188 213 188z" />
    <glyph glyph-name="T" unicode="T" horiz-adv-x="463" 
d="M188 631h-137c-23 0 -41 19 -41 41c0 23 18 41 43 41h357c26 0 43 -16 43 -41c0 -23 -14 -41 -39 -41h-139v-592c0 -25 -18 -45 -44 -45c-24 0 -43 19 -43 45v592z" />
    <glyph glyph-name="U" unicode="U" horiz-adv-x="668" 
d="M102 719c26 0 44 -19 44 -45v-428c0 -115 87 -176 194 -176s182 73 182 176v428c0 26 18 45 42 45c26 0 45 -18 45 -45v-399c0 -179 -99 -281 -271 -281c-189 0 -279 116 -279 279v401c0 26 19 45 43 45z" />
    <glyph glyph-name="V" unicode="V" horiz-adv-x="580" 
d="M54 719c23 0 43 -21 51 -45l184 -531h2l188 543c8 23 24 33 47 33c25 0 39 -14 39 -41c0 -5 -1 -16 -4 -24l-221 -617c-11 -31 -24 -43 -53 -43c-24 0 -35 11 -45 39l-217 606c-5 13 -10 28 -10 35c0 25 17 45 39 45z" />
    <glyph glyph-name="W" unicode="W" horiz-adv-x="846" 
d="M76 719c25 0 43 -14 47 -39l82 -576l174 580c7 23 20 35 41 35s40 -13 47 -35l172 -580l83 572c4 25 23 43 47 43c27 0 42 -19 42 -53c0 -7 -1 -18 -5 -40l-98 -569c-7 -42 -33 -63 -69 -63c-33 0 -55 14 -66 53l-149 514h-2l-150 -519c-8 -29 -39 -48 -68 -48
c-31 0 -59 21 -66 61l-96 564c-4 21 -7 39 -7 45c0 31 14 55 41 55z" />
    <glyph glyph-name="X" unicode="X" horiz-adv-x="608" 
d="M89 719c20 0 34 -8 45 -24l170 -248l170 248c11 16 24 24 43 24c21 0 37 -15 37 -37c0 -12 -4 -24 -12 -36l-187 -263l226 -319c8 -11 12 -22 12 -35c0 -21 -20 -35 -41 -35c-15 0 -28 7 -39 22l-209 297l-209 -297c-11 -16 -23 -22 -41 -22c-17 0 -39 18 -39 37
c0 7 5 20 12 30l226 322l-187 263c-12 16 -16 31 -16 40c0 18 20 33 39 33z" />
    <glyph glyph-name="Y" unicode="Y" horiz-adv-x="518" 
d="M49 719c19 0 33 -8 43 -24l168 -273l168 271c10 17 23 26 41 26c22 0 39 -14 39 -37c0 -12 -4 -22 -11 -33l-193 -315v-297c0 -28 -17 -43 -44 -43c-25 0 -43 21 -43 47v295l-195 316c-7 11 -12 25 -12 32c0 20 20 35 39 35z" />
    <glyph glyph-name="Z" unicode="Z" horiz-adv-x="562" 
d="M88 713h391c30 0 45 -11 45 -35c0 -11 -5 -25 -16 -41l-373 -561h361c24 0 41 -12 41 -37c0 -22 -19 -39 -43 -39h-418c-31 0 -51 15 -51 39c0 8 6 24 14 37l371 561h-324c-23 0 -43 15 -43 37c0 23 18 39 45 39z" />
    <glyph glyph-name="bracketleft" unicode="[" horiz-adv-x="225" 
d="M141 643v-649h33c22 0 39 -17 39 -39c0 -23 -18 -37 -42 -37h-65c-28 0 -47 17 -47 47v705c0 31 17 49 47 49h68c25 0 39 -17 39 -39c0 -18 -16 -37 -37 -37h-35z" />
    <glyph glyph-name="backslash" unicode="\" horiz-adv-x="406" 
d="M55 721c21 0 35 -8 43 -26l285 -640c4 -10 6 -20 6 -30c0 -21 -17 -35 -37 -35s-33 10 -41 28l-284 634c-6 13 -9 23 -9 32c0 23 18 37 37 37z" />
    <glyph glyph-name="bracketright" unicode="]" horiz-adv-x="225" 
d="M84 -6v649h-35c-21 0 -37 19 -37 37c0 22 14 39 39 39h68c30 0 47 -18 47 -49v-705c0 -30 -19 -47 -47 -47h-65c-24 0 -42 14 -42 37c0 22 17 39 39 39h33z" />
    <glyph glyph-name="asciicircum" unicode="^" horiz-adv-x="600" 
d="M299 719c19 0 36 -10 49 -33l191 -340c4 -8 6 -15 6 -24c0 -17 -19 -35 -37 -35c-13 0 -29 13 -39 31l-168 313l-174 -318c-8 -15 -23 -26 -37 -26c-19 0 -35 17 -35 35c0 5 4 17 8 24l191 342c12 22 28 31 45 31z" />
    <glyph glyph-name="underscore" unicode="_" horiz-adv-x="500" 
d="M-2 -74h502c17 0 31 -9 31 -26s-14 -25 -31 -25h-500c-19 0 -31 9 -31 26c0 14 11 25 29 25z" />
    <glyph glyph-name="grave" unicode="`" horiz-adv-x="203" 
d="M73 930c19 0 34 -15 44 -28l72 -92c11 -15 15 -29 15 -40c0 -20 -15 -34 -33 -34s-37 14 -51 32l-73 95c-9 11 -14 23 -14 33c0 19 20 34 40 34z" />
    <glyph glyph-name="a" unicode="a" horiz-adv-x="556" 
d="M267 463c-96 0 -145 -95 -145 -197c0 -86 39 -196 141 -196c111 0 152 96 152 196c0 97 -47 197 -148 197zM456 539c25 0 41 -19 41 -45v-455c0 -27 -15 -45 -41 -45c-22 0 -41 14 -41 41v39h-2c-38 -52 -86 -80 -139 -80c-146 0 -239 119 -239 270c0 144 84 275 228 275
c66 0 105 -22 150 -72h2v29c0 24 18 43 41 43z" />
    <glyph glyph-name="b" unicode="b" horiz-adv-x="552" 
d="M289 463c-100 0 -152 -90 -152 -197c0 -101 44 -196 154 -196c100 0 139 112 139 198c0 94 -46 195 -141 195zM146 467h2c37 48 85 72 143 72c142 0 226 -135 226 -275c0 -136 -78 -270 -236 -270c-65 0 -109 26 -133 72h-2v-29c0 -25 -20 -43 -45 -43s-42 20 -42 45v688
c0 27 16 46 42 46c27 0 45 -16 45 -44v-262z" />
    <glyph glyph-name="c" unicode="c" horiz-adv-x="452" 
d="M270 539c54 0 147 -18 147 -68c0 -21 -17 -35 -39 -35c-13 0 -62 27 -104 27c-100 0 -152 -102 -152 -201c0 -88 47 -192 152 -192c62 0 75 32 106 32c21 0 33 -18 33 -39c0 -58 -89 -69 -139 -69c-150 0 -239 122 -239 260c0 155 76 285 235 285z" />
    <glyph glyph-name="d" unicode="d" horiz-adv-x="552" 
d="M270 463c-102 0 -148 -106 -148 -202c0 -88 40 -191 140 -191c111 0 154 99 154 196c0 96 -48 197 -146 197zM449 773c27 0 44 -18 44 -46v-688c0 -27 -18 -45 -44 -45c-23 0 -43 19 -43 43v29h-2c-24 -44 -70 -72 -133 -72c-156 0 -236 128 -236 270
c0 136 81 275 225 275c60 0 108 -24 144 -72h2v262c0 25 20 44 43 44z" />
    <glyph glyph-name="e" unicode="e" horiz-adv-x="537" 
d="M269 539c139 0 233 -123 233 -264c0 -28 -15 -43 -48 -43h-332c0 -101 68 -162 162 -162c107 0 146 71 176 71c20 0 31 -17 31 -37c0 -48 -107 -110 -212 -110c-155 0 -244 113 -244 277c0 132 92 268 234 268zM122 299h293c0 91 -51 164 -142 164
c-92 0 -151 -70 -151 -164z" />
    <glyph glyph-name="f" unicode="f" horiz-adv-x="279" 
d="M201 773c52 0 78 -14 78 -41c0 -22 -20 -35 -45 -35h-27c-22 0 -34 -16 -34 -42v-122h57c26 0 43 -12 43 -35c0 -27 -14 -41 -43 -41h-57v-418c0 -27 -18 -45 -44 -45c-25 0 -43 19 -43 45v418h-37c-28 0 -43 14 -43 41c0 23 17 35 45 35h35v127c0 66 51 113 115 113z
" />
    <glyph glyph-name="g" unicode="g" horiz-adv-x="552" 
d="M261 463c-97 0 -139 -107 -139 -197c0 -92 42 -196 141 -196c100 0 152 85 152 190c0 92 -44 203 -154 203zM406 70h-3c-26 -49 -80 -76 -142 -76c-146 0 -226 140 -226 276c0 145 87 269 235 269c64 0 108 -26 133 -73h3v28c0 25 17 45 42 45c28 0 45 -19 45 -47v-455
c0 -132 -74 -254 -236 -254c-91 0 -209 51 -209 102c0 18 15 37 35 37c54 0 77 -63 178 -63c102 0 145 94 145 191v20z" />
    <glyph glyph-name="h" unicode="h" horiz-adv-x="539" 
d="M102 773c26 0 44 -18 44 -46v-256l2 -2c33 44 86 70 143 70c113 0 189 -92 189 -197v-303c0 -27 -19 -45 -44 -45c-23 0 -43 18 -43 45v291c0 74 -46 133 -122 133c-72 0 -125 -56 -125 -131v-293c0 -26 -18 -45 -44 -45c-23 0 -43 18 -43 45v688c0 27 18 46 43 46z" />
    <glyph glyph-name="i" unicode="i" horiz-adv-x="205" 
d="M102 539c26 0 44 -18 44 -45v-455c0 -26 -18 -45 -44 -45c-24 0 -43 19 -43 45v453c0 27 18 47 43 47zM102 719c30 0 55 -25 55 -55c0 -28 -23 -55 -55 -55s-55 27 -55 55c0 29 25 55 55 55z" />
    <glyph glyph-name="j" unicode="j" horiz-adv-x="205" 
d="M102 539c26 0 44 -18 44 -45v-666c0 -26 -18 -45 -44 -45c-24 0 -43 19 -43 45v664c0 27 18 47 43 47zM102 719c30 0 55 -25 55 -55c0 -28 -23 -55 -55 -55s-55 27 -55 55c0 29 25 55 55 55z" />
    <glyph glyph-name="k" unicode="k" horiz-adv-x="460" 
d="M102 771c27 0 44 -16 44 -44v-377l202 170c18 15 28 19 41 19c23 0 37 -17 37 -41c0 -12 -5 -22 -16 -31l-207 -164l232 -228c14 -13 20 -28 20 -46c0 -21 -16 -35 -37 -35c-15 0 -31 7 -45 22l-227 236v-213c0 -26 -18 -45 -44 -45c-23 0 -43 18 -43 45v690
c0 26 19 42 43 42z" />
    <glyph glyph-name="l" unicode="l" horiz-adv-x="205" 
d="M102 771c26 0 44 -18 44 -45v-687c0 -26 -18 -45 -44 -45c-24 0 -43 19 -43 45v685c0 27 18 47 43 47z" />
    <glyph glyph-name="m" unicode="m" horiz-adv-x="833" 
d="M104 539c27 0 42 -19 42 -47v-17h2c34 43 79 64 137 64c60 0 109 -32 143 -90c46 63 96 90 168 90c112 0 178 -84 178 -191v-311c0 -25 -19 -43 -44 -43c-22 0 -43 17 -43 43v299c0 80 -41 127 -113 127c-67 0 -114 -44 -114 -117v-309c0 -25 -19 -43 -44 -43
c-22 0 -43 17 -43 43v299c0 80 -41 127 -113 127c-67 0 -114 -44 -114 -117v-309c0 -25 -19 -43 -44 -43c-22 0 -43 17 -43 43v459c0 25 21 43 45 43z" />
    <glyph glyph-name="n" unicode="n" horiz-adv-x="539" 
d="M102 539c26 0 44 -18 44 -46v-22l2 -2c33 44 86 70 143 70c113 0 189 -92 189 -197v-303c0 -27 -19 -45 -44 -45c-23 0 -43 18 -43 45v291c0 74 -46 133 -122 133c-72 0 -125 -56 -125 -131v-293c0 -26 -18 -45 -44 -45c-23 0 -43 18 -43 45v454c0 27 18 46 43 46z" />
    <glyph glyph-name="o" unicode="o" horiz-adv-x="538" 
d="M270 463c-104 0 -148 -101 -148 -197c0 -93 43 -196 146 -196c109 0 148 103 148 196c0 99 -45 197 -146 197zM270 539c149 0 233 -130 233 -273c0 -144 -87 -272 -233 -272s-235 129 -235 272c0 155 94 273 235 273z" />
    <glyph glyph-name="p" unicode="p" horiz-adv-x="552" 
d="M291 463c-113 0 -154 -104 -154 -195c0 -107 47 -198 146 -198c101 0 147 102 147 196c0 92 -39 197 -139 197zM101 539c26 0 45 -17 45 -45v-27h2c24 47 68 72 133 72c157 0 236 -129 236 -269c0 -146 -82 -276 -226 -276c-59 0 -107 24 -143 72h-2v-236
c0 -30 -15 -53 -43 -53c-24 0 -44 23 -44 51v664c0 27 18 47 42 47z" />
    <glyph glyph-name="q" unicode="q" horiz-adv-x="551" 
d="M259 463c-95 0 -137 -107 -137 -197c0 -99 46 -196 141 -196c102 0 150 92 150 192c0 92 -45 201 -154 201zM405 66h-4c-30 -47 -84 -72 -142 -72c-143 0 -224 138 -224 276c0 144 89 269 234 269c64 0 111 -28 134 -72h2v27c0 26 18 45 43 45s44 -20 44 -47v-664
c0 -28 -17 -51 -46 -51c-26 0 -41 23 -41 53v236z" />
    <glyph glyph-name="r" unicode="r" horiz-adv-x="316" 
d="M102 539c26 0 44 -20 44 -47v-45h2c23 42 71 92 118 92c25 0 50 -18 50 -45c0 -50 -59 -41 -106 -68c-36 -21 -64 -61 -64 -129v-258c0 -26 -16 -45 -42 -45s-45 15 -45 47v451c0 27 19 47 43 47z" />
    <glyph glyph-name="s" unicode="s" horiz-adv-x="462" 
d="M233 539c63 0 183 -32 183 -94c0 -19 -18 -39 -39 -39c-20 0 -94 57 -135 57c-54 0 -96 -25 -96 -67c0 -38 44 -66 119 -91c94 -32 162 -64 162 -155c0 -93 -87 -156 -194 -156c-103 0 -198 55 -198 102c0 20 16 39 38 39c40 0 77 -65 158 -65c48 0 109 18 109 73
c0 48 -61 75 -128 100c-81 30 -153 64 -153 148c0 83 76 148 174 148z" />
    <glyph glyph-name="t" unicode="t" horiz-adv-x="254" 
d="M129 693c26 0 44 -15 44 -43v-117h40c24 0 41 -13 41 -39c0 -20 -16 -37 -37 -37h-44v-420c0 -26 -20 -43 -46 -43c-30 0 -41 13 -41 45v418h-39c-23 0 -43 16 -43 37c0 23 17 39 43 39h39v119c0 25 18 41 43 41z" />
    <glyph glyph-name="u" unicode="u" horiz-adv-x="539" 
d="M102 539c26 0 44 -18 44 -45v-291c0 -79 40 -133 122 -133c84 0 125 44 125 133v291c0 26 18 45 43 45s44 -18 44 -45v-293c0 -120 -79 -207 -214 -207c-124 0 -207 76 -207 207v293c0 28 19 45 43 45z" />
    <glyph glyph-name="v" unicode="v" horiz-adv-x="428" 
d="M46 539c23 0 39 -12 47 -37l121 -367l125 373c7 21 19 31 41 31c23 0 43 -16 43 -41c0 -6 -3 -17 -7 -29l-155 -438c-8 -22 -21 -37 -47 -37c-21 0 -37 13 -45 35l-156 436c-4 11 -8 27 -8 31c0 24 17 43 41 43z" />
    <glyph glyph-name="w" unicode="w" horiz-adv-x="761" 
d="M53 539c25 0 41 -10 47 -31l118 -377l2 -2l114 363c9 27 26 47 48 47s38 -14 49 -49l115 -359h2l115 369c8 26 23 39 47 39s41 -18 41 -43c0 -6 -2 -16 -7 -30l-147 -429c-10 -30 -26 -43 -49 -43c-30 0 -40 16 -51 49l-113 355h-2l-111 -347c-12 -38 -22 -57 -55 -57
c-29 0 -40 15 -53 53l-146 425c-4 12 -7 27 -7 31c0 21 21 36 43 36z" />
    <glyph glyph-name="x" unicode="x" horiz-adv-x="463" 
d="M65 539c16 0 28 -6 38 -19l130 -174l129 172c10 14 22 21 37 21c22 0 38 -17 38 -41c0 -10 -4 -20 -12 -31l-141 -186l155 -202c13 -17 19 -32 19 -50c0 -20 -17 -35 -37 -35c-17 0 -32 9 -47 30l-141 195l-146 -203c-12 -16 -25 -22 -43 -22c-20 0 -39 16 -39 39
c0 10 5 26 17 41l161 207l-141 184c-9 12 -16 27 -16 38c0 20 19 36 39 36z" />
    <glyph glyph-name="y" unicode="y" horiz-adv-x="433" 
d="M56 539c19 0 39 -12 46 -33l121 -365h2l121 367c7 21 20 31 41 31c24 0 41 -16 41 -43c0 -6 -3 -18 -7 -30l-228 -648c-8 -23 -24 -39 -48 -39c-20 0 -36 18 -36 41c0 5 4 21 10 38l61 162l-159 455c-3 8 -6 17 -6 27c0 21 18 37 41 37z" />
    <glyph glyph-name="z" unicode="z" horiz-adv-x="460" 
d="M79 533h301c27 0 41 -10 41 -31c0 -11 -5 -26 -17 -45l-258 -381h246c25 0 43 -14 43 -39c0 -22 -20 -37 -43 -37h-320c-24 0 -47 4 -47 25c0 12 10 34 23 53l254 379h-225c-22 0 -41 16 -41 37c0 25 16 39 43 39z" />
    <glyph glyph-name="braceleft" unicode="{" horiz-adv-x="260" 
d="M66 320v-4c71 -4 92 -69 92 -136v-147c0 -45 20 -55 55 -55c25 0 43 -9 43 -31s-20 -29 -39 -29h-45c-59 0 -96 45 -96 102v161c0 58 -10 91 -55 102c-25 6 -37 17 -37 33c0 19 12 32 37 38c45 11 55 45 55 103v160c0 58 37 102 96 102h45c18 0 39 -10 39 -30
c0 -22 -16 -30 -43 -30c-36 0 -55 -13 -55 -55v-147c0 -66 -23 -132 -92 -137z" />
    <glyph glyph-name="bar" unicode="|" horiz-adv-x="223" 
d="M111 771c28 0 41 -13 41 -39v-699c0 -23 -17 -39 -41 -39c-23 0 -41 18 -41 41v699c0 25 19 37 41 37z" />
    <glyph glyph-name="braceright" unicode="}" horiz-adv-x="260" 
d="M194 316v4c-69 5 -92 71 -92 137v147c0 42 -19 55 -55 55c-27 0 -43 8 -43 30c0 20 21 30 39 30h45c59 0 96 -44 96 -102v-160c0 -58 10 -92 55 -103c25 -6 37 -19 37 -38c0 -16 -12 -27 -37 -33c-45 -11 -55 -44 -55 -102v-161c0 -57 -37 -102 -96 -102h-45
c-19 0 -39 7 -39 29s18 31 43 31c35 0 55 10 55 55v147c0 67 21 132 92 136z" />
    <glyph glyph-name="asciitilde" unicode="~" horiz-adv-x="600" 
d="M64 211c0 58 71 115 129 115c86 0 156 -68 211 -68c44 0 52 68 98 68c17 0 35 -12 35 -29c0 -64 -71 -115 -131 -115c-85 0 -158 68 -209 68c-43 0 -47 -68 -97 -68c-18 0 -36 10 -36 29z" />
    <glyph glyph-name="afii10051" unicode="&#x402;" horiz-adv-x="695" 
d="M275 631v-225c38 15 92 30 145 30c151 0 227 -100 227 -217c0 -121 -94 -219 -224 -219h-44c-28 0 -43 12 -43 39c0 23 17 37 45 37h23c94 0 156 60 156 131c0 131 -80 162 -160 162c-38 0 -84 -12 -125 -36v-294c0 -25 -18 -45 -44 -45c-24 0 -43 19 -43 45v592h-137
c-23 0 -41 19 -41 41c0 23 18 41 43 41h404c26 0 43 -16 43 -41c0 -23 -14 -41 -39 -41h-186z" />
    <glyph glyph-name="afii10052" unicode="&#x403;" horiz-adv-x="413" 
d="M96 713h269c23 0 33 -22 33 -43c0 -24 -15 -39 -41 -39h-211v-590c0 -27 -17 -47 -44 -47c-26 0 -43 19 -43 48v622c0 26 15 49 37 49zM333 988c20 0 40 -15 40 -34c0 -10 -5 -22 -14 -33l-73 -95c-14 -18 -33 -32 -51 -32s-33 14 -33 34c0 11 4 25 15 40l72 92
c10 13 25 28 44 28z" />
    <glyph glyph-name="afii10100" unicode="&#x453;" horiz-adv-x="349" 
d="M334 494c0 -19 -15 -37 -36 -37h-152v-420c0 -26 -17 -43 -46 -43c-22 0 -41 15 -41 45v455c0 27 17 39 44 39h190c26 0 41 -15 41 -39zM268 751c16 0 32 -12 32 -28c0 -8 -4 -17 -11 -26l-59 -76c-11 -14 -26 -26 -41 -26c-14 0 -26 12 -26 28c0 8 3 20 12 32l58 73
c8 11 20 23 35 23z" />
    <glyph glyph-name="quotedblbase" unicode="&#x201e;" horiz-adv-x="379" 
d="M135 96c23 0 39 -15 39 -39c0 -10 -3 -25 -9 -36l-61 -119c-9 -18 -25 -29 -45 -29s-39 17 -39 39c0 8 7 25 15 41l59 115c10 19 24 28 41 28zM280 96c23 0 39 -15 39 -39c0 -10 -3 -25 -9 -36l-61 -119c-9 -18 -25 -29 -45 -29s-39 17 -39 39c0 8 7 25 15 41l59 115
c10 19 24 28 41 28z" />
    <glyph glyph-name="ellipsis" unicode="&#x2026;" horiz-adv-x="1000" 
d="M166 96c30 0 51 -24 51 -51s-23 -51 -51 -51c-26 0 -51 24 -51 51c0 26 21 51 51 51zM500 96c30 0 51 -24 51 -51s-23 -51 -51 -51c-26 0 -51 24 -51 51c0 26 21 51 51 51zM834 96c30 0 51 -24 51 -51s-23 -51 -51 -51c-26 0 -51 24 -51 51c0 26 21 51 51 51z" />
    <glyph glyph-name="dagger" unicode="&#x2020;" horiz-adv-x="605" 
d="M304 719c22 0 41 -15 41 -39v-209h199c24 0 39 -18 39 -41c0 -24 -16 -41 -41 -41h-197v-565c0 -24 -18 -39 -41 -39c-25 0 -41 16 -41 41v563h-202c-22 0 -39 19 -39 41c0 21 17 41 39 41h202v209c0 24 19 39 41 39z" />
    <glyph glyph-name="Euro" unicode="&#x20ac;" 
d="M493 579h-20c-9 68 -59 99 -127 99c-114 0 -156 -96 -168 -251h263l-14 -37h-251c0 -10 -1 -23 -1 -32c0 -10 0 -26 1 -34h224l-14 -37h-209c10 -162 68 -252 170 -252c59 0 115 27 126 101h20l-6 -81c-25 -33 -70 -60 -159 -60c-150 0 -227 100 -242 292h-67l15 37h48
c-1 9 -1 26 -1 35c0 8 1 22 1 31h-63l15 37h51c18 186 81 292 243 292c95 0 138 -30 159 -57z" />
    <glyph glyph-name="afii10058" unicode="&#x409;" horiz-adv-x="907" 
d="M168 713h312c25 0 45 -18 45 -53v-244h112c154 0 235 -75 235 -209c0 -106 -69 -207 -210 -207h-176c-32 0 -48 17 -48 47v590h-226v-185c0 -163 -38 -324 -116 -423c-18 -23 -41 -35 -58 -35c-37 0 -43 14 -43 35c0 19 5 34 25 53c66 63 105 198 105 389v191
c0 31 19 51 43 51zM525 340v-264h118c102 0 142 59 142 131c0 70 -34 133 -133 133h-127z" />
    <glyph glyph-name="afii10059" unicode="&#x40a;" horiz-adv-x="952" 
d="M146 416h337v256c0 32 15 47 45 47c27 0 42 -18 42 -47v-256h112c154 0 235 -75 235 -209c0 -106 -69 -207 -210 -207h-176c-32 0 -48 17 -48 47v293h-337v-297c0 -32 -15 -49 -42 -49c-30 0 -45 16 -45 47v631c0 32 15 47 45 47c27 0 42 -18 42 -47v-256zM570 340v-264
h118c102 0 142 59 142 131c0 70 -34 133 -133 133h-127z" />
    <glyph glyph-name="afii10061" unicode="&#x40c;" horiz-adv-x="560" 
d="M104 719c27 0 42 -18 42 -47v-260l315 289c14 12 27 18 39 18c24 0 37 -19 37 -41c0 -15 -6 -27 -17 -37l-293 -264l324 -313c10 -9 15 -19 15 -35c0 -22 -18 -35 -43 -35c-16 0 -28 5 -44 20l-333 326v-297c0 -32 -15 -49 -42 -49c-30 0 -45 16 -45 47v631
c0 32 15 47 45 47zM415 988c20 0 40 -15 40 -34c0 -10 -5 -22 -14 -33l-73 -95c-14 -18 -33 -32 -51 -32s-33 14 -33 34c0 11 4 25 15 40l72 92c10 13 25 28 44 28z" />
    <glyph glyph-name="afii10060" unicode="&#x40b;" horiz-adv-x="695" 
d="M275 631v-225c38 15 92 30 145 30c157 0 227 -88 227 -205v-186c0 -31 -19 -51 -43 -51s-44 18 -44 51v156c0 143 -80 168 -160 168c-48 0 -93 -18 -125 -36v-294c0 -25 -18 -45 -44 -45c-24 0 -43 19 -43 45v592h-137c-23 0 -41 19 -41 41c0 23 18 41 43 41h404
c26 0 43 -16 43 -41c0 -23 -14 -41 -39 -41h-186z" />
    <glyph glyph-name="afii10145" unicode="&#x40f;" horiz-adv-x="669" 
d="M146 76h377v596c0 32 15 47 45 47c27 0 42 -18 42 -47v-623c0 -32 -15 -49 -42 -49h-195v-129c0 -25 -9 -43 -41 -43c-25 0 -36 16 -36 41v131h-192c-30 0 -45 16 -45 47v625c0 32 15 47 45 47c27 0 42 -18 42 -47v-596z" />
    <glyph glyph-name="afii10099" unicode="&#x452;" horiz-adv-x="539" 
d="M146 601v-178l2 -2c33 44 86 70 143 70c113 0 189 -92 189 -197v-269c0 -132 -63 -262 -225 -262c-91 0 -167 31 -167 78c0 18 16 38 40 38c32 0 74 -40 131 -40c102 0 134 110 134 207v236c0 74 -46 133 -122 133c-72 0 -125 -56 -125 -131v-245c0 -26 -18 -45 -44 -45
c-23 0 -43 18 -43 45v562h-37c-28 0 -43 14 -43 41c0 23 17 35 45 35h35v50c0 27 18 46 43 46c26 0 44 -18 44 -46v-50h221c24 0 41 -13 41 -39c0 -20 -16 -37 -37 -37h-225z" />
    <glyph glyph-name="quoteleft" unicode="&#x2018;" horiz-adv-x="186" 
d="M142 717c22 0 39 -16 39 -41c0 -9 -2 -18 -6 -26l-62 -125c-8 -16 -30 -31 -47 -31c-20 0 -37 18 -37 39c0 12 4 23 12 39l56 114c10 20 25 31 45 31z" />
    <glyph glyph-name="quoteright" unicode="&#x2019;" horiz-adv-x="186" 
d="M142 717c22 0 39 -16 39 -41c0 -9 -2 -18 -6 -26l-62 -125c-8 -16 -30 -31 -47 -31c-20 0 -37 18 -37 39c0 12 4 23 12 39l56 114c10 20 25 31 45 31z" />
    <glyph glyph-name="quotedblleft" unicode="&#x201c;" horiz-adv-x="332" 
d="M142 719c22 0 39 -16 39 -41c0 -9 -2 -18 -6 -26l-62 -125c-8 -16 -30 -31 -47 -31c-20 0 -37 18 -37 39c0 12 4 23 12 39l56 114c10 20 25 31 45 31zM288 719c22 0 39 -16 39 -41c0 -9 -2 -18 -6 -26l-62 -125c-8 -16 -30 -31 -47 -31c-20 0 -37 18 -37 39
c0 12 4 23 12 39l56 114c10 20 25 31 45 31z" />
    <glyph glyph-name="quotedblright" unicode="&#x201d;" horiz-adv-x="332" 
d="M142 719c22 0 39 -16 39 -41c0 -9 -2 -18 -6 -26l-62 -125c-8 -16 -30 -31 -47 -31c-20 0 -37 18 -37 39c0 12 4 23 12 39l56 114c10 20 25 31 45 31zM288 719c22 0 39 -16 39 -41c0 -9 -2 -18 -6 -26l-62 -125c-8 -16 -30 -31 -47 -31c-20 0 -37 18 -37 39
c0 12 4 23 12 39l56 114c10 20 25 31 45 31z" />
    <glyph glyph-name="bullet" unicode="&#x2022;" horiz-adv-x="495" 
d="M247 535c99 0 179 -82 179 -180s-81 -177 -179 -177s-178 79 -178 177c0 99 79 180 178 180z" />
    <glyph glyph-name="endash" unicode="&#x2013;" horiz-adv-x="500" 
d="M41 307h418c23 0 37 -17 37 -39c0 -21 -15 -37 -37 -37h-418c-23 0 -37 16 -37 37s12 39 37 39z" />
    <glyph glyph-name="emdash" unicode="&#x2014;" horiz-adv-x="1000" 
d="M42 307h915c23 0 37 -17 37 -39c0 -21 -15 -37 -37 -37h-915c-23 0 -37 16 -37 37s12 39 37 39z" />
    <glyph glyph-name="trademark" unicode="&#x2122;" horiz-adv-x="990" 
d="M86 713h279c20 0 30 -15 30 -33c0 -17 -9 -34 -28 -34h-99v-310c0 -24 -19 -39 -41 -39s-41 15 -41 39v310h-100c-16 0 -29 13 -29 32s12 35 29 35zM535 719c37 0 59 -15 70 -43l100 -258l98 260c11 28 32 41 70 41c39 0 60 -24 60 -65v-316c0 -25 -13 -41 -37 -41
c-19 0 -39 19 -39 39v289h-2l-111 -297c-7 -18 -21 -31 -41 -31c-18 0 -32 12 -39 31l-111 297h-2v-287c0 -24 -16 -41 -39 -41c-22 0 -37 17 -37 41v314c0 45 20 67 60 67z" />
    <glyph glyph-name="afii10106" unicode="&#x459;" horiz-adv-x="788" 
d="M367 457h-172v-115c0 -104 -11 -174 -39 -226c-44 -84 -83 -122 -113 -122c-18 0 -38 19 -38 35c0 19 15 36 34 55c61 61 74 134 74 258v146c0 25 17 45 43 45h250c36 0 48 -16 48 -45v-164h78c95 0 221 -24 221 -158c0 -128 -99 -166 -219 -166h-116
c-40 0 -51 18 -51 50v407zM454 248v-172h85c71 0 120 9 120 89c0 62 -41 83 -124 83h-81z" />
    <glyph glyph-name="afii10107" unicode="&#x45a;" horiz-adv-x="796" 
d="M146 324h229v168c0 29 19 47 43 47s44 -17 44 -47v-168h78c95 0 221 -24 221 -158c0 -128 -99 -166 -219 -166h-116c-40 0 -51 18 -51 50v198h-229v-207c0 -30 -19 -47 -46 -47s-41 16 -41 46v451c0 30 18 48 43 48c23 0 44 -17 44 -47v-168zM462 248v-172h85
c71 0 120 9 120 89c0 62 -41 83 -124 83h-81z" />
    <glyph glyph-name="afii10109" unicode="&#x45c;" horiz-adv-x="460" 
d="M102 539c27 0 44 -16 44 -44v-172l198 192c18 17 31 24 44 24c23 0 37 -17 37 -41c0 -12 -6 -23 -17 -33l-190 -172l217 -218c13 -14 20 -28 20 -46c0 -21 -16 -35 -37 -35c-15 0 -31 7 -45 22l-227 236v-213c0 -26 -18 -45 -44 -45c-23 0 -43 18 -43 45v458
c0 26 19 42 43 42zM331 751c16 0 32 -12 32 -28c0 -8 -4 -17 -11 -26l-59 -76c-11 -14 -26 -26 -41 -26c-14 0 -26 12 -26 28c0 8 3 20 12 32l58 73c8 11 20 23 35 23z" />
    <glyph glyph-name="afii10108" unicode="&#x45b;" horiz-adv-x="539" 
d="M146 601v-178l2 -2c33 44 86 70 143 70c113 0 189 -92 189 -197v-255c0 -27 -19 -45 -44 -45c-23 0 -43 18 -43 45v243c0 74 -46 133 -122 133c-72 0 -125 -56 -125 -131v-245c0 -26 -18 -45 -44 -45c-23 0 -43 18 -43 45v562h-37c-28 0 -43 14 -43 41c0 23 17 35 45 35
h35v50c0 27 18 46 43 46c26 0 44 -18 44 -46v-50h221c24 0 41 -13 41 -39c0 -20 -16 -37 -37 -37h-225z" />
    <glyph glyph-name="afii10193" unicode="&#x45f;" horiz-adv-x="531" 
d="M146 76h239v416c0 29 19 47 43 47s44 -17 44 -47v-447c0 -30 -20 -45 -43 -45h-125v-119c0 -24 -13 -41 -38 -41c-27 0 -39 16 -39 41v119h-127c-27 0 -41 16 -41 46v445c0 30 18 48 43 48c23 0 44 -17 44 -47v-416z" />
    <glyph glyph-name="afii10062" unicode="&#x40e;" horiz-adv-x="518" 
d="M57 719c15 0 30 -9 40 -24l185 -300l146 298c9 18 25 26 41 26c22 0 39 -15 39 -39c0 -9 -4 -19 -11 -32l-316 -613c-10 -20 -26 -41 -40 -41c-19 0 -43 15 -43 41c0 15 4 30 12 44l122 229l-206 328c-9 14 -16 26 -16 37c0 16 21 46 47 46zM270 817c64 0 72 58 105 58
c19 0 29 -18 29 -37c0 -53 -77 -97 -134 -97c-55 0 -136 42 -136 97c0 19 11 37 32 37c28 0 47 -58 104 -58z" />
    <glyph glyph-name="afii10110" unicode="&#x45e;" horiz-adv-x="433" 
d="M56 539c19 0 39 -12 46 -33l121 -365h2l121 367c7 21 20 31 41 31c24 0 41 -16 41 -43c0 -6 -3 -18 -7 -30l-228 -648c-8 -23 -24 -39 -48 -39c-20 0 -36 18 -36 41c0 5 4 21 10 38l61 162l-159 455c-3 8 -6 17 -6 27c0 21 18 37 41 37zM233 646c53 0 65 54 94 54
c17 0 26 -11 26 -30c0 -55 -64 -91 -120 -91c-55 0 -123 36 -123 91c0 14 13 30 29 30c28 0 42 -54 94 -54z" />
    <glyph glyph-name="afii10057" unicode="&#x408;" horiz-adv-x="370" 
d="M26 109c43 0 43 -39 121 -39c52 0 77 38 77 98v504c0 32 15 47 45 47c27 0 42 -18 42 -47v-486c0 -90 -31 -192 -160 -192c-61 0 -160 30 -160 78c0 25 12 37 35 37z" />
    <glyph glyph-name="currency" unicode="&#xa4;" 
d="M270 528c-93 0 -168 -70 -168 -171c0 -90 63 -174 168 -174c91 0 164 77 164 174c0 100 -72 171 -164 171zM55 604c9 0 15 -3 23 -12l39 -41c38 36 97 53 153 53c52 0 112 -16 148 -53l45 45c5 6 12 8 19 8c16 0 34 -20 34 -37c0 -8 -4 -16 -10 -22l-39 -39
c33 -37 49 -91 49 -151s-16 -109 -49 -148l39 -39c7 -6 10 -15 10 -25c0 -18 -19 -36 -36 -36c-6 0 -17 8 -29 20l-33 35c-36 -35 -87 -55 -150 -55c-62 0 -112 20 -149 55l-45 -43c-7 -7 -15 -12 -21 -12c-14 0 -33 20 -33 38c0 9 7 19 11 23l37 39c-30 38 -48 87 -48 147
c0 52 16 113 48 152l-37 39c-6 7 -11 15 -11 23c0 19 17 36 35 36z" />
    <glyph glyph-name="afii10050" unicode="&#x490;" horiz-adv-x="413" 
d="M96 713h225v87c0 25 17 41 41 41c22 0 36 -18 36 -43v-126c0 -26 -14 -41 -38 -41h-214v-590c0 -27 -17 -47 -44 -47c-26 0 -43 19 -43 48v622c0 26 15 49 37 49z" />
    <glyph glyph-name="section" unicode="&#xa7;" horiz-adv-x="557" 
d="M150 441c-42 25 -66 64 -66 116c0 98 91 162 215 162c120 0 203 -81 203 -150c0 -29 -18 -49 -41 -49c-11 0 -32 6 -45 39c-23 58 -58 84 -135 84c-54 0 -110 -32 -110 -84c0 -29 27 -63 92 -94l155 -75c65 -31 109 -90 109 -163c0 -69 -42 -132 -107 -170
c42 -30 64 -68 64 -116c0 -100 -102 -158 -205 -158c-136 0 -230 85 -230 148c0 25 20 48 41 48c70 0 33 -120 187 -120c62 0 120 25 120 80c0 30 -15 59 -91 93l-146 66c-76 34 -132 97 -132 173c0 73 47 138 122 170zM227 395c-58 -20 -112 -68 -112 -118
c0 -42 33 -77 94 -107l145 -72c58 41 86 84 86 131c0 45 -26 80 -81 105z" />
    <glyph glyph-name="afii10023" unicode="&#x401;" horiz-adv-x="443" 
d="M146 631v-235h198c24 0 39 -17 39 -41c0 -23 -16 -41 -41 -41h-196v-232h219c25 0 37 -18 37 -43c0 -23 -17 -39 -43 -39h-257c-35 0 -43 25 -43 49v615c0 26 15 49 37 49h269c23 0 37 -19 37 -41c0 -23 -15 -41 -39 -41h-217zM146 896c26 0 47 -20 47 -50
c0 -25 -21 -47 -47 -47c-28 0 -50 21 -50 47c0 28 22 50 50 50zM318 896c26 0 47 -20 47 -50c0 -25 -21 -47 -47 -47c-28 0 -50 21 -50 47c0 28 22 50 50 50z" />
    <glyph glyph-name="copyright" unicode="&#xa9;" horiz-adv-x="801" 
d="M403 580c84 0 180 -65 180 -127c0 -17 -13 -29 -33 -29c-43 0 -59 90 -147 90c-81 0 -129 -76 -129 -157c0 -79 51 -154 129 -154c95 0 110 92 147 92c22 0 33 -9 33 -27c0 -59 -88 -131 -180 -131c-123 0 -211 100 -211 220c0 121 91 223 211 223zM401 68
c156 0 282 129 282 285c0 157 -125 288 -282 288s-283 -131 -283 -288c0 -156 127 -285 283 -285zM401 -6c-200 0 -363 162 -363 361c0 200 163 364 363 364s362 -160 362 -364c0 -199 -163 -361 -362 -361z" />
    <glyph glyph-name="afii10053" unicode="&#x404;" horiz-adv-x="600" 
d="M350 719c105 0 209 -51 209 -110c0 -21 -17 -37 -37 -37c-43 0 -57 71 -166 71c-138 0 -210 -115 -227 -247h277c23 0 38 -18 39 -41c0 -22 -14 -41 -41 -41h-275c14 -125 87 -244 213 -244c125 0 148 63 197 63c26 0 33 -24 33 -39c0 -48 -90 -100 -230 -100
c-182 0 -307 155 -307 352c0 221 125 373 315 373z" />
    <glyph glyph-name="guillemotleft" unicode="&#xab;" horiz-adv-x="389" 
d="M174 473c18 0 37 -18 37 -35c0 -6 -5 -20 -12 -32l-84 -138l86 -143c5 -9 10 -20 10 -29c0 -20 -20 -33 -39 -33c-14 0 -23 8 -37 32l-98 173l100 179c9 16 20 26 37 26zM332 473c18 0 37 -18 37 -35c0 -6 -5 -20 -12 -32l-84 -138l86 -143c5 -9 10 -20 10 -29
c0 -20 -20 -33 -39 -33c-14 0 -23 8 -37 32l-98 173l100 179c9 16 20 26 37 26z" />
    <glyph glyph-name="logicalnot" unicode="&#xac;" horiz-adv-x="553" 
d="M96 307h360c20 0 38 -13 38 -41v-154c0 -24 -14 -41 -36 -41c-23 0 -41 14 -41 39v121h-321c-23 0 -37 16 -37 37s12 39 37 39z" />
    <glyph glyph-name="registered" unicode="&#xae;" horiz-adv-x="801" 
d="M382 320h-65v-144c0 -19 -11 -31 -33 -31c-15 0 -31 11 -31 31v363c0 13 7 20 21 20h133c102 0 151 -38 151 -120c0 -67 -34 -105 -102 -115l90 -138c5 -9 8 -17 8 -24c0 -14 -16 -17 -37 -17c-17 0 -31 9 -39 23zM317 498v-117h77c62 0 99 6 99 62c0 42 -27 55 -94 55
h-82zM401 -6c-200 0 -363 162 -363 361c0 200 163 364 363 364s362 -160 362 -364c0 -199 -163 -361 -362 -361zM401 70c156 0 282 129 282 285c0 157 -125 288 -282 288s-283 -131 -283 -288c0 -156 127 -285 283 -285z" />
    <glyph glyph-name="afii10056" unicode="&#x407;" horiz-adv-x="205" 
d="M104 719c27 0 42 -18 42 -47v-629c0 -32 -15 -49 -42 -49c-30 0 -45 16 -45 47v631c0 32 15 47 45 47zM18 896c26 0 47 -20 47 -50c0 -25 -21 -47 -47 -47c-28 0 -50 21 -50 47c0 28 22 50 50 50zM190 896c26 0 47 -20 47 -50c0 -25 -21 -47 -47 -47c-28 0 -50 21 -50 47
c0 28 22 50 50 50z" />
    <glyph glyph-name="degree" unicode="&#xb0;" horiz-adv-x="307" 
d="M153 725c-25 0 -45 -21 -45 -47c0 -24 20 -45 45 -45c26 0 46 20 46 45c0 24 -21 47 -46 47zM153 774c52 0 95 -44 95 -96c0 -50 -41 -94 -95 -94c-51 0 -94 44 -94 94c0 51 42 96 94 96z" />
    <glyph glyph-name="plusminus" unicode="&#xb1;" horiz-adv-x="600" 
d="M299 506c26 0 43 -16 43 -43v-109h174c24 0 37 -20 37 -43c0 -22 -16 -39 -39 -39h-172v-111c0 -25 -17 -43 -41 -43c-23 0 -41 18 -41 43v111h-170c-26 0 -47 18 -47 41c0 24 21 41 47 41h170v109c0 25 16 43 39 43zM90 82h426c25 0 41 -18 41 -43
c0 -21 -17 -39 -41 -39h-426c-25 0 -45 18 -45 41c0 25 18 41 45 41z" />
    <glyph glyph-name="afii10055" unicode="&#x406;" horiz-adv-x="205" 
d="M104 719c27 0 42 -18 42 -47v-629c0 -32 -15 -49 -42 -49c-30 0 -45 16 -45 47v631c0 32 15 47 45 47z" />
    <glyph glyph-name="afii10103" unicode="&#x456;" horiz-adv-x="205" 
d="M102 539c26 0 44 -18 44 -45v-455c0 -26 -18 -45 -44 -45c-24 0 -43 19 -43 45v453c0 27 18 47 43 47zM102 719c30 0 55 -25 55 -55c0 -28 -23 -55 -55 -55s-55 27 -55 55c0 29 25 55 55 55z" />
    <glyph glyph-name="afii10098" unicode="&#x491;" horiz-adv-x="349" 
d="M103 533h154v89c0 25 18 39 41 39c22 0 36 -17 36 -41v-122c0 -28 -18 -41 -38 -41h-150v-420c0 -26 -17 -43 -46 -43c-22 0 -41 15 -41 45v455c0 27 17 39 44 39z" />
    <glyph glyph-name="paragraph" unicode="&#xb6;" horiz-adv-x="600" 
d="M439 646h-115v-826c0 -23 -19 -37 -41 -37c-23 0 -41 15 -41 39v522c-121 0 -215 72 -215 189c0 125 123 180 241 180h207c31 0 46 -17 46 -51v-838c0 -25 -18 -41 -41 -41s-41 15 -41 39v824z" />
    <glyph glyph-name="afii10071" unicode="&#x451;" horiz-adv-x="537" 
d="M269 539c139 0 233 -123 233 -264c0 -28 -15 -43 -48 -43h-332c0 -101 68 -162 162 -162c107 0 146 71 176 71c20 0 31 -17 31 -37c0 -48 -107 -110 -212 -110c-155 0 -244 113 -244 277c0 132 92 268 234 268zM122 299h293c0 91 -51 164 -142 164
c-92 0 -151 -70 -151 -164zM180 715c26 0 47 -20 47 -50c0 -25 -21 -47 -47 -47c-28 0 -50 21 -50 47c0 28 22 50 50 50zM352 715c26 0 47 -20 47 -50c0 -25 -21 -47 -47 -47c-28 0 -50 21 -50 47c0 28 22 50 50 50z" />
    <glyph glyph-name="afii61352" unicode="&#x2116;" horiz-adv-x="1037" 
d="M96 719c20 0 37 -10 53 -32l372 -534h1v519c0 26 15 47 42 47s45 -19 45 -47v-635c0 -25 -14 -43 -39 -43c-18 0 -34 4 -49 26l-374 538h-1v-521c0 -26 -18 -43 -44 -43c-24 0 -43 20 -43 45v632c0 29 13 48 37 48zM842 545c-54 0 -82 -54 -82 -103
c0 -50 32 -104 82 -104c51 0 80 54 80 104s-27 103 -80 103zM842 606c90 0 151 -70 151 -164c0 -84 -55 -165 -151 -165c-91 0 -153 78 -153 165s57 164 153 164zM736 199h201c23 0 40 -14 40 -38c0 -23 -16 -38 -41 -38h-199c-25 0 -43 16 -43 36c0 23 18 40 42 40z" />
    <glyph glyph-name="afii10101" unicode="&#x454;" horiz-adv-x="452" 
d="M273 539c75 0 144 -28 144 -68c0 -24 -21 -35 -39 -35c-17 0 -60 27 -101 27c-82 0 -134 -60 -148 -153h182c26 0 41 -16 41 -39c0 -20 -15 -37 -37 -37h-186c0 -80 51 -164 145 -164c50 0 78 32 106 32c19 0 33 -15 33 -39c0 -54 -81 -69 -136 -69
c-143 0 -242 105 -242 266c0 154 81 279 238 279z" />
    <glyph glyph-name="guillemotright" unicode="&#xbb;" horiz-adv-x="389" 
d="M232 473c17 0 28 -10 37 -26l100 -179l-98 -173c-14 -24 -23 -32 -37 -32c-19 0 -39 13 -39 33c0 9 5 20 10 29l86 143l-84 138c-7 12 -12 26 -12 32c0 17 19 35 37 35zM74 473c17 0 28 -10 37 -26l100 -179l-98 -173c-14 -24 -23 -32 -37 -32c-19 0 -39 13 -39 33
c0 9 5 20 10 29l86 143l-84 138c-7 12 -12 26 -12 32c0 17 19 35 37 35z" />
    <glyph glyph-name="afii10105" unicode="&#x458;" horiz-adv-x="205" 
d="M102 539c26 0 44 -18 44 -45v-666c0 -26 -18 -45 -44 -45c-24 0 -43 19 -43 45v664c0 27 18 47 43 47zM102 719c30 0 55 -25 55 -55c0 -28 -23 -55 -55 -55s-55 27 -55 55c0 29 25 55 55 55z" />
    <glyph glyph-name="afii10054" unicode="&#x405;" horiz-adv-x="509" 
d="M255 719c70 0 172 -25 172 -84c0 -20 -18 -39 -41 -39s-86 47 -137 47c-64 0 -113 -44 -113 -104c0 -61 63 -90 140 -117c103 -36 198 -74 198 -205c0 -126 -99 -223 -238 -223c-73 0 -201 28 -201 90c0 23 15 41 39 41c27 0 72 -55 173 -55c74 0 133 68 133 139
c0 83 -80 113 -155 138c-101 34 -183 73 -183 184c0 112 110 188 213 188z" />
    <glyph glyph-name="afii10102" unicode="&#x455;" horiz-adv-x="462" 
d="M233 539c63 0 183 -32 183 -94c0 -19 -18 -39 -39 -39c-20 0 -94 57 -135 57c-54 0 -96 -25 -96 -67c0 -38 44 -66 119 -91c94 -32 162 -64 162 -155c0 -93 -87 -156 -194 -156c-103 0 -198 55 -198 102c0 20 16 39 38 39c40 0 77 -65 158 -65c48 0 109 18 109 73
c0 48 -61 75 -128 100c-81 30 -153 64 -153 148c0 83 76 148 174 148z" />
    <glyph glyph-name="afii10104" unicode="&#x457;" horiz-adv-x="205" 
d="M102 539c26 0 44 -18 44 -45v-455c0 -26 -18 -45 -44 -45c-24 0 -43 19 -43 45v453c0 27 18 47 43 47zM18 715c26 0 47 -20 47 -50c0 -25 -21 -47 -47 -47c-28 0 -50 21 -50 47c0 28 22 50 50 50zM190 715c26 0 47 -20 47 -50c0 -25 -21 -47 -47 -47c-28 0 -50 21 -50 47
c0 28 22 50 50 50z" />
    <glyph glyph-name="afii10017" unicode="&#x410;" horiz-adv-x="612" 
d="M168 230h277l-138 387h-2zM471 154h-330l-47 -129c-8 -22 -21 -33 -45 -33c-20 0 -41 15 -41 37c0 5 4 18 6 24l230 615c11 28 31 51 61 51c31 0 51 -19 62 -49l233 -617c3 -9 4 -19 4 -26c0 -24 -18 -35 -41 -35c-21 0 -37 12 -45 33z" />
    <glyph glyph-name="afii10018" unicode="&#x411;" horiz-adv-x="542" 
d="M146 340v-264h118c102 0 156 59 156 131c0 70 -48 133 -147 133h-127zM104 713h275c30 0 49 -7 49 -41c0 -26 -19 -35 -45 -35h-237v-221h112c154 0 249 -76 249 -211c0 -105 -83 -205 -224 -205h-176c-32 0 -48 17 -48 47v619c0 31 18 47 45 47z" />
    <glyph glyph-name="afii10019" unicode="&#x412;" horiz-adv-x="548" 
d="M104 713h160c94 0 188 -69 188 -167c0 -65 -30 -138 -98 -159v-2c100 -17 153 -91 153 -179c0 -114 -97 -206 -224 -206h-176c-32 0 -48 17 -48 47v619c0 29 17 47 45 47zM146 637v-225h102c68 0 117 48 117 113c0 61 -41 112 -107 112h-112zM146 340v-264h118
c84 0 156 44 156 131c0 81 -62 133 -147 133h-127z" />
    <glyph glyph-name="afii10020" unicode="&#x413;" horiz-adv-x="413" 
d="M96 713h269c23 0 33 -22 33 -43c0 -24 -15 -39 -41 -39h-211v-590c0 -27 -17 -47 -44 -47c-26 0 -43 19 -43 48v622c0 26 15 49 37 49z" />
    <glyph glyph-name="afii10021" unicode="&#x414;" horiz-adv-x="680" 
d="M574 0h-477v-131c0 -25 -17 -41 -41 -41c-22 0 -36 18 -36 43v164c0 26 13 41 38 41h12c92 123 105 249 105 376v210c0 31 18 51 43 51h330c25 0 44 -18 44 -53v-584h21c24 0 38 -15 38 -41v-164c0 -25 -14 -43 -36 -43c-24 0 -41 16 -41 41v131zM505 76v561h-243v-185
c0 -172 -49 -307 -100 -376h343z" />
    <glyph glyph-name="afii10022" unicode="&#x415;" horiz-adv-x="443" 
d="M146 631v-235h198c24 0 39 -17 39 -41c0 -23 -16 -41 -41 -41h-196v-232h219c25 0 37 -18 37 -43c0 -23 -17 -39 -43 -39h-257c-35 0 -43 25 -43 49v615c0 26 15 49 37 49h269c23 0 37 -19 37 -41c0 -23 -15 -41 -39 -41h-217z" />
    <glyph glyph-name="afii10024" unicode="&#x416;" horiz-adv-x="945" 
d="M474 719c27 0 42 -18 42 -47v-260l305 289c12 11 27 18 39 18c24 0 37 -19 37 -41c0 -15 -6 -27 -17 -37l-283 -263l318 -314c10 -9 15 -19 15 -35c0 -22 -18 -35 -43 -35c-16 0 -28 5 -44 20l-327 326v-297c0 -32 -15 -49 -42 -49c-30 0 -45 16 -45 47v299l-327 -326
c-16 -15 -28 -20 -44 -20c-25 0 -43 13 -43 35c0 16 5 26 15 35l318 314l-283 263c-11 10 -17 22 -17 37c0 22 13 41 37 41c12 0 26 -6 39 -18l305 -289v260c0 32 15 47 45 47z" />
    <glyph glyph-name="afii10025" unicode="&#x417;" horiz-adv-x="561" 
d="M292 719c110 0 189 -77 189 -174c0 -42 -24 -125 -109 -158v-2c122 -25 154 -114 154 -180c0 -81 -73 -211 -235 -211c-218 0 -256 151 -256 169c0 22 21 44 47 44c15 0 31 -13 41 -39c21 -52 61 -100 158 -100c107 0 151 67 151 139c0 67 -42 133 -141 133h-61
c-19 0 -36 15 -36 35c0 22 12 37 30 37h42c72 0 128 62 128 119c0 77 -48 114 -118 114c-50 0 -113 -14 -130 -100c-5 -25 -15 -45 -41 -45c-32 0 -41 27 -41 55c0 96 95 164 228 164z" />
    <glyph glyph-name="afii10026" unicode="&#x418;" horiz-adv-x="667" 
d="M103 719c26 0 43 -20 43 -47v-518h1l374 537c14 20 30 28 50 28c25 0 37 -20 37 -47v-633c0 -27 -19 -45 -43 -45c-26 0 -44 17 -44 43v522l-2 -2l-373 -537c-14 -21 -31 -26 -49 -26c-26 0 -38 18 -38 43v635c0 29 17 47 44 47z" />
    <glyph glyph-name="afii10027" unicode="&#x419;" horiz-adv-x="667" 
d="M333 817c64 0 72 58 105 58c19 0 29 -18 29 -37c0 -53 -77 -97 -134 -97c-55 0 -136 42 -136 97c0 19 11 37 32 37c28 0 47 -58 104 -58zM103 719c26 0 43 -20 43 -47v-518h1l374 537c14 20 30 28 50 28c25 0 37 -20 37 -47v-633c0 -27 -19 -45 -43 -45
c-26 0 -44 17 -44 43v522l-2 -2l-373 -537c-14 -21 -31 -26 -49 -26c-26 0 -38 18 -38 43v635c0 29 17 47 44 47z" />
    <glyph glyph-name="afii10028" unicode="&#x41a;" horiz-adv-x="560" 
d="M104 719c27 0 42 -18 42 -47v-260l315 289c14 12 27 18 39 18c24 0 37 -19 37 -41c0 -15 -6 -27 -17 -37l-293 -264l324 -313c10 -9 15 -19 15 -35c0 -22 -18 -35 -43 -35c-16 0 -28 5 -44 20l-333 326v-297c0 -32 -15 -49 -42 -49c-30 0 -45 16 -45 47v631
c0 32 15 47 45 47z" />
    <glyph glyph-name="afii10029" unicode="&#x41b;" horiz-adv-x="602" 
d="M168 713h330c25 0 45 -18 45 -53v-617c0 -30 -18 -49 -45 -49c-22 0 -42 18 -42 49v594h-244v-185c0 -163 -38 -324 -116 -423c-18 -23 -41 -35 -58 -35c-37 0 -43 14 -43 35c0 19 5 34 25 53c66 63 105 198 105 389v191c0 31 19 51 43 51z" />
    <glyph glyph-name="afii10030" unicode="&#x41c;" horiz-adv-x="847" 
d="M206 719c33 0 55 -13 65 -47l152 -522h2l152 526c9 30 33 43 63 43c37 0 62 -20 68 -57l96 -565c3 -17 8 -41 8 -47c0 -43 -26 -56 -43 -56c-23 0 -42 15 -45 39l-82 574l-174 -578c-7 -24 -20 -35 -43 -35c-22 0 -38 12 -45 35l-172 578l-83 -570
c-4 -26 -24 -43 -49 -43c-23 0 -41 24 -41 51c0 6 4 32 6 43l99 570c7 38 31 61 66 61z" />
    <glyph glyph-name="afii10031" unicode="&#x41d;" horiz-adv-x="668" 
d="M146 394h376v278c0 32 15 47 45 47c27 0 42 -18 42 -47v-629c0 -32 -15 -49 -42 -49c-30 0 -45 16 -45 47v277h-376v-275c0 -32 -15 -49 -42 -49c-30 0 -45 16 -45 47v631c0 32 15 47 45 47c27 0 42 -18 42 -47v-278z" />
    <glyph glyph-name="afii10032" unicode="&#x41e;" horiz-adv-x="695" 
d="M348 719c208 0 312 -182 312 -364c0 -202 -122 -361 -312 -361c-189 0 -313 161 -313 361s120 364 313 364zM348 643c-149 0 -219 -138 -219 -286c0 -140 59 -287 219 -287c155 0 218 144 218 287c0 151 -61 286 -218 286z" />
    <glyph glyph-name="afii10033" unicode="&#x41f;" horiz-adv-x="647" 
d="M102 713h442c25 0 44 -18 44 -53v-617c0 -30 -17 -49 -44 -49c-22 0 -43 18 -43 49v594h-355v-594c0 -30 -18 -49 -44 -49c-23 0 -43 17 -43 49v619c0 31 19 51 43 51z" />
    <glyph glyph-name="afii10034" unicode="&#x420;" horiz-adv-x="544" 
d="M102 713h177c140 0 230 -95 230 -223c0 -127 -98 -224 -218 -224h-145v-229c0 -25 -19 -43 -44 -43c-29 0 -43 23 -43 45v627c0 32 22 47 43 47zM146 637v-295h125c87 0 151 63 151 150c0 89 -61 145 -147 145h-129z" />
    <glyph glyph-name="afii10035" unicode="&#x421;" horiz-adv-x="607" 
d="M522 572c-40 0 -58 71 -166 71c-155 0 -227 -149 -227 -280c0 -130 59 -293 213 -293c124 0 149 63 197 63c22 0 33 -17 33 -39c0 -75 -168 -100 -224 -100c-199 0 -313 169 -313 352c0 192 100 373 315 373c77 0 209 -40 209 -110c0 -17 -17 -37 -37 -37z" />
    <glyph glyph-name="afii10036" unicode="&#x422;" horiz-adv-x="463" 
d="M188 631h-137c-23 0 -41 19 -41 41c0 23 18 41 43 41h357c26 0 43 -16 43 -41c0 -23 -14 -41 -39 -41h-139v-592c0 -25 -18 -45 -44 -45c-24 0 -43 19 -43 45v592z" />
    <glyph glyph-name="afii10037" unicode="&#x423;" horiz-adv-x="518" 
d="M57 719c15 0 30 -9 40 -24l185 -300l146 298c9 18 25 26 41 26c22 0 39 -15 39 -39c0 -9 -4 -19 -11 -32l-316 -613c-10 -20 -26 -41 -40 -41c-19 0 -43 15 -43 41c0 15 4 30 12 44l122 229l-206 328c-9 14 -16 26 -16 37c0 16 21 46 47 46z" />
    <glyph glyph-name="afii10038" unicode="&#x424;" horiz-adv-x="799" 
d="M399 719c24 0 44 -13 44 -46v-58h76c157 0 245 -83 245 -238c0 -145 -86 -250 -228 -250h-93v-82c0 -31 -19 -50 -44 -51c-22 0 -43 19 -43 51v82h-93c-142 0 -228 105 -228 250c0 155 88 238 245 238h76v58c0 31 19 45 43 46zM443 539v-336h87c98 0 147 71 147 169
c0 83 -23 167 -166 167h-68zM356 203v336h-68c-143 0 -166 -84 -166 -167c0 -98 49 -169 147 -169h87z" />
    <glyph glyph-name="afii10039" unicode="&#x425;" horiz-adv-x="608" 
d="M89 719c20 0 34 -8 45 -24l170 -248l170 248c11 16 24 24 43 24c21 0 37 -15 37 -37c0 -12 -4 -24 -12 -36l-187 -263l226 -319c8 -11 12 -22 12 -35c0 -21 -20 -35 -41 -35c-15 0 -28 7 -39 22l-209 297l-209 -297c-11 -16 -23 -22 -41 -22c-17 0 -39 18 -39 37
c0 7 5 20 12 30l226 322l-187 263c-12 16 -16 31 -16 40c0 18 20 33 39 33z" />
    <glyph glyph-name="afii10040" unicode="&#x426;" horiz-adv-x="677" 
d="M146 76h355v594c0 30 18 49 44 49c23 0 43 -17 43 -49v-594h31c20 0 38 -12 38 -41v-164c0 -25 -9 -43 -41 -43c-25 0 -36 16 -36 41v131h-477c-25 0 -44 18 -44 53v617c0 30 18 49 44 49c22 0 43 -18 43 -49v-594z" />
    <glyph glyph-name="afii10041" unicode="&#x427;" horiz-adv-x="596" 
d="M84 719c24 0 44 -18 44 -51v-156c0 -143 80 -168 160 -168c72 0 138 40 162 62v262c0 33 20 51 43 51c25 0 44 -18 44 -47v-629c0 -32 -15 -49 -42 -49c-30 0 -45 16 -45 47v283c-32 -17 -108 -47 -182 -47c-157 0 -227 88 -227 205v186c0 31 19 51 43 51z" />
    <glyph glyph-name="afii10042" unicode="&#x428;" horiz-adv-x="915" 
d="M146 76h268v594c0 30 18 49 44 49c23 0 43 -18 43 -49v-594h268v594c0 30 18 49 44 49c23 0 43 -17 43 -49v-619c0 -31 -19 -51 -43 -51h-710c-25 0 -44 18 -44 53v617c0 30 18 49 44 49c22 0 43 -18 43 -49v-594z" />
    <glyph glyph-name="afii10043" unicode="&#x429;" horiz-adv-x="944" 
d="M146 76h268v594c0 30 18 49 44 49c23 0 43 -18 43 -49v-594h268v594c0 30 18 49 44 49c23 0 43 -17 43 -49v-594h30c21 0 38 -13 38 -41v-164c0 -25 -11 -43 -38 -43s-39 16 -39 41v131h-744c-25 0 -44 18 -44 53v617c0 30 18 49 44 49c22 0 43 -18 43 -49v-594z" />
    <glyph glyph-name="afii10044" unicode="&#x42a;" horiz-adv-x="674" 
d="M53 713h181c34 0 44 -25 44 -49v-248h112c154 0 249 -76 249 -211c0 -105 -83 -205 -224 -205h-176c-32 0 -48 17 -48 47v584h-140c-23 0 -41 19 -41 41c0 23 17 41 43 41zM278 340v-264h118c102 0 156 59 156 131c0 70 -48 133 -147 133h-127z" />
    <glyph glyph-name="afii10045" unicode="&#x42b;" horiz-adv-x="713" 
d="M102 719c32 0 44 -24 44 -49v-254h112c154 0 249 -76 249 -211c0 -105 -83 -205 -224 -205h-176c-32 0 -48 17 -48 47v625c0 31 16 47 43 47zM146 340v-264h118c102 0 156 59 156 131c0 70 -48 133 -147 133h-127zM612 719c27 0 42 -18 42 -47v-629
c0 -32 -15 -49 -42 -49c-30 0 -45 16 -45 47v631c0 32 15 47 45 47z" />
    <glyph glyph-name="afii10046" unicode="&#x42c;" horiz-adv-x="542" 
d="M102 719c32 0 44 -24 44 -49v-254h112c154 0 249 -76 249 -211c0 -105 -83 -205 -224 -205h-176c-32 0 -48 17 -48 47v625c0 31 16 47 43 47zM146 340v-264h118c102 0 156 59 156 131c0 70 -48 133 -147 133h-127z" />
    <glyph glyph-name="afii10047" unicode="&#x42d;" horiz-adv-x="600" 
d="M267 719c168 0 298 -114 298 -353c0 -210 -118 -372 -301 -372c-137 0 -238 59 -238 97c0 15 13 42 39 42c41 0 67 -63 206 -63c124 0 200 140 200 244h-249c-27 0 -41 19 -41 41c1 23 16 41 39 41h251c0 137 -65 247 -210 247c-108 0 -144 -69 -180 -69
c-20 0 -38 14 -38 35c0 50 96 110 224 110z" />
    <glyph glyph-name="afii10048" unicode="&#x42e;" horiz-adv-x="896" 
d="M146 394h121c8 182 114 325 295 325c194 0 299 -157 299 -362c0 -193 -106 -363 -297 -363c-164 0 -287 122 -297 324h-121v-275c0 -30 -18 -49 -44 -49c-23 0 -43 17 -43 49v625c0 31 19 51 43 51s44 -18 44 -51v-274zM564 643c-125 0 -203 -102 -203 -286
c0 -194 75 -287 203 -287s203 94 203 287c0 184 -78 286 -203 286z" />
    <glyph glyph-name="afii10049" unicode="&#x42f;" horiz-adv-x="544" 
d="M398 313h-51l-234 -296c-10 -13 -24 -23 -39 -23c-17 0 -40 17 -40 39c0 14 12 31 24 46l193 237c-140 15 -192 98 -192 194c0 148 114 203 212 203h171c20 0 43 -12 43 -47v-627c0 -29 -20 -45 -43 -45c-26 0 -44 17 -44 43v276zM398 383v254h-120
c-73 0 -132 -41 -132 -125c0 -79 45 -129 128 -129h124z" />
    <glyph glyph-name="afii10065" unicode="&#x430;" horiz-adv-x="556" 
d="M267 463c-96 0 -145 -95 -145 -197c0 -86 39 -196 141 -196c111 0 152 96 152 196c0 97 -47 197 -148 197zM456 539c25 0 41 -19 41 -45v-455c0 -27 -15 -45 -41 -45c-22 0 -41 14 -41 41v39h-2c-38 -52 -86 -80 -139 -80c-146 0 -239 119 -239 270c0 144 84 275 228 275
c66 0 105 -22 150 -72h2v29c0 24 18 43 41 43z" />
    <glyph glyph-name="afii10066" unicode="&#x431;" horiz-adv-x="543" 
d="M458 766c23 0 34 -16 34 -35c0 -60 -88 -69 -175 -77c-109 -10 -163 -30 -189 -97c-11 -27 -21 -121 -21 -121c34 65 101 103 168 103c154 0 233 -115 233 -273c0 -144 -88 -272 -233 -272c-141 0 -234 109 -234 272v136c0 76 4 110 19 167c30 116 122 157 227 170
c95 12 138 27 171 27zM275 463c-91 0 -147 -73 -147 -197c0 -99 45 -196 145 -196c98 0 148 88 148 196s-52 197 -146 197z" />
    <glyph glyph-name="afii10067" unicode="&#x432;" horiz-adv-x="519" 
d="M132 539h144c89 0 180 -28 180 -130c0 -50 -31 -100 -99 -119c79 -19 121 -57 121 -129c0 -82 -57 -161 -219 -161h-159c-24 0 -41 15 -41 45v437c0 56 29 57 73 57zM369 396c0 57 -51 67 -114 67h-109v-146h113c58 0 110 16 110 79zM384 158c0 75 -47 87 -122 87h-116
v-169h92c65 0 146 15 146 82z" />
    <glyph glyph-name="afii10068" unicode="&#x433;" horiz-adv-x="349" 
d="M334 494c0 -19 -15 -37 -36 -37h-152v-420c0 -26 -17 -43 -46 -43c-22 0 -41 15 -41 45v455c0 27 17 39 44 39h190c26 0 41 -15 41 -39z" />
    <glyph glyph-name="afii10069" unicode="&#x434;" horiz-adv-x="580" 
d="M488 0h-401v-121c0 -25 -18 -39 -41 -39c-22 0 -36 17 -36 41v154c0 28 17 41 38 41h19c58 65 74 143 74 244v168c0 25 17 45 44 45h272c26 0 44 -20 44 -45v-412h26c20 0 38 -13 38 -41v-154c0 -24 -14 -41 -36 -41c-23 0 -41 14 -41 39v121zM414 76v381h-191v-115
c0 -130 -15 -202 -55 -266h246z" />
    <glyph glyph-name="afii10070" unicode="&#x435;" horiz-adv-x="537" 
d="M269 539c139 0 233 -123 233 -264c0 -28 -15 -43 -48 -43h-332c0 -101 68 -162 162 -162c107 0 146 71 176 71c20 0 31 -17 31 -37c0 -48 -107 -110 -212 -110c-155 0 -244 113 -244 277c0 132 92 268 234 268zM122 299h293c0 91 -51 164 -142 164
c-92 0 -151 -70 -151 -164z" />
    <glyph glyph-name="afii10072" unicode="&#x436;" horiz-adv-x="693" 
d="M346 539c25 0 44 -14 44 -44v-172l188 192c16 17 31 24 44 24c23 0 37 -17 37 -41c0 -12 -6 -22 -17 -33l-180 -172l206 -218c14 -15 20 -28 20 -46c0 -21 -16 -35 -37 -35c-15 0 -32 7 -45 22l-216 236v-213c0 -28 -19 -45 -44 -45c-21 0 -43 16 -43 45v213l-216 -236
c-13 -15 -30 -22 -45 -22c-21 0 -37 14 -37 35c0 18 6 31 20 46l206 218l-180 172c-11 11 -17 21 -17 33c0 24 14 41 37 41c13 0 28 -7 44 -24l188 -192v174c0 27 19 42 43 42z" />
    <glyph glyph-name="afii10073" unicode="&#x437;" horiz-adv-x="493" 
d="M257 539c100 0 179 -47 179 -135c0 -54 -33 -96 -96 -117c55 -11 112 -47 112 -126c0 -85 -74 -167 -212 -167c-83 0 -205 53 -205 102c0 17 17 41 40 41c45 0 69 -67 160 -67c52 0 130 18 130 100c0 65 -62 78 -125 78h-52c-17 0 -34 14 -34 32c0 21 9 40 36 40h50
c51 0 109 14 109 76c0 57 -44 67 -99 67c-104 0 -114 -49 -151 -49c-26 0 -44 14 -44 41c0 47 107 84 202 84z" />
    <glyph glyph-name="afii10074" unicode="&#x438;" 
d="M102 539c24 0 44 -17 44 -47v-337l224 329c28 42 42 55 67 55c27 0 39 -18 39 -47v-453c0 -30 -14 -45 -44 -45c-31 0 -43 17 -43 43v340l-208 -308c-37 -55 -55 -75 -81 -75c-22 0 -41 8 -41 55v443c0 29 19 47 43 47z" />
    <glyph glyph-name="afii10075" unicode="&#x439;" 
d="M269 646c53 0 65 54 94 54c17 0 26 -11 26 -30c0 -55 -64 -91 -120 -91c-55 0 -123 36 -123 91c0 14 13 30 29 30c28 0 42 -54 94 -54zM102 539c24 0 44 -17 44 -47v-337l224 329c28 42 42 55 67 55c27 0 39 -18 39 -47v-453c0 -30 -14 -45 -44 -45c-31 0 -43 17 -43 43
v340l-208 -308c-37 -55 -55 -75 -81 -75c-22 0 -41 8 -41 55v443c0 29 19 47 43 47z" />
    <glyph glyph-name="afii10076" unicode="&#x43a;" horiz-adv-x="460" 
d="M102 539c27 0 44 -16 44 -44v-172l198 192c18 17 31 24 44 24c23 0 37 -17 37 -41c0 -12 -6 -23 -17 -33l-190 -172l217 -218c13 -14 20 -28 20 -46c0 -21 -16 -35 -37 -35c-15 0 -31 7 -45 22l-227 236v-213c0 -26 -18 -45 -44 -45c-23 0 -43 18 -43 45v458
c0 26 19 42 43 42z" />
    <glyph glyph-name="afii10077" unicode="&#x43b;" horiz-adv-x="526" 
d="M380 457h-185v-115c0 -104 -11 -174 -39 -226c-44 -84 -83 -122 -113 -122c-18 0 -38 19 -38 35c0 19 15 36 34 55c61 61 74 134 74 258v146c0 25 17 45 43 45h263c36 0 48 -16 48 -45v-449c0 -30 -20 -45 -42 -45c-27 0 -45 17 -45 43v420z" />
    <glyph glyph-name="afii10078" unicode="&#x43c;" horiz-adv-x="711" 
d="M137 539c35 0 45 -16 68 -69l150 -344l150 344c23 53 34 69 69 69c31 0 51 -13 55 -47l44 -423c1 -12 3 -28 3 -31c0 -26 -15 -44 -41 -44c-33 0 -45 25 -47 45l-32 338l-130 -293c-28 -63 -43 -90 -71 -90c-29 0 -42 27 -70 90l-130 293l-31 -327
c-3 -34 -18 -56 -48 -56c-28 0 -41 19 -41 44c0 3 2 20 4 39l43 415c4 34 24 47 55 47z" />
    <glyph glyph-name="afii10079" unicode="&#x43d;" horiz-adv-x="530" 
d="M146 324h238v168c0 29 19 47 43 47s44 -17 44 -47v-453c0 -30 -20 -45 -43 -45c-33 0 -44 22 -44 48v206h-238v-207c0 -30 -19 -47 -46 -47s-41 16 -41 46v451c0 30 18 48 43 48c23 0 44 -17 44 -47v-168z" />
    <glyph glyph-name="afii10080" unicode="&#x43e;" horiz-adv-x="538" 
d="M270 463c-104 0 -148 -101 -148 -197c0 -93 43 -196 146 -196c109 0 148 103 148 196c0 99 -45 197 -146 197zM270 539c149 0 233 -130 233 -273c0 -144 -87 -272 -233 -272s-235 129 -235 272c0 155 94 273 235 273z" />
    <glyph glyph-name="afii10081" unicode="&#x43f;" horiz-adv-x="531" 
d="M102 533h327c26 0 43 -20 43 -45v-449c0 -30 -20 -45 -42 -45c-27 0 -45 17 -45 43v420h-239v-420c0 -26 -19 -43 -46 -43c-22 0 -41 15 -41 45v449c0 25 17 45 43 45z" />
    <glyph glyph-name="afii10082" unicode="&#x440;" horiz-adv-x="552" 
d="M291 463c-113 0 -154 -104 -154 -195c0 -107 47 -198 146 -198c101 0 147 102 147 196c0 92 -39 197 -139 197zM101 539c26 0 45 -17 45 -45v-27h2c24 47 68 72 133 72c157 0 236 -129 236 -269c0 -146 -82 -276 -226 -276c-59 0 -107 24 -143 72h-2v-236
c0 -30 -15 -53 -43 -53c-24 0 -44 23 -44 51v664c0 27 18 47 42 47z" />
    <glyph glyph-name="afii10083" unicode="&#x441;" horiz-adv-x="452" 
d="M270 539c54 0 147 -18 147 -68c0 -21 -17 -35 -39 -35c-13 0 -62 27 -104 27c-100 0 -152 -102 -152 -201c0 -88 47 -192 152 -192c62 0 75 32 106 32c21 0 33 -18 33 -39c0 -58 -89 -69 -139 -69c-150 0 -239 122 -239 260c0 155 76 285 235 285z" />
    <glyph glyph-name="afii10084" unicode="&#x442;" horiz-adv-x="403" 
d="M56 533h291c26 0 41 -15 41 -39c0 -19 -15 -37 -37 -37h-106v-420c0 -26 -15 -43 -45 -43c-24 0 -42 15 -42 45v418h-106c-22 0 -37 18 -37 37c0 24 15 39 41 39z" />
    <glyph glyph-name="afii10085" unicode="&#x443;" horiz-adv-x="433" 
d="M56 539c19 0 39 -12 46 -33l121 -365h2l121 367c7 21 20 31 41 31c24 0 41 -16 41 -43c0 -6 -3 -18 -7 -30l-228 -648c-8 -23 -24 -39 -48 -39c-20 0 -36 18 -36 41c0 5 4 21 10 38l61 162l-159 455c-3 8 -6 17 -6 27c0 21 18 37 41 37z" />
    <glyph glyph-name="afii10086" unicode="&#x444;" horiz-adv-x="856" 
d="M602 463c-88 0 -131 -95 -131 -195c0 -115 52 -198 134 -198c93 0 129 92 129 199c0 100 -36 194 -132 194zM426 771c26 0 45 -17 45 -45v-259h2c24 47 68 72 133 72c157 0 215 -128 215 -268c0 -146 -68 -277 -212 -277c-59 0 -100 24 -136 72h-2v-236
c0 -30 -15 -53 -43 -53c-24 0 -44 23 -44 51v238h-2c-36 -48 -77 -72 -136 -72c-144 0 -211 131 -211 277c0 140 57 268 214 268c65 0 109 -25 133 -72h2v257c0 27 18 47 42 47zM253 463c-100 0 -131 -95 -131 -195c0 -107 34 -198 131 -198c78 0 131 83 131 198
c0 100 -43 195 -131 195z" />
    <glyph glyph-name="afii10087" unicode="&#x445;" horiz-adv-x="463" 
d="M65 539c16 0 28 -6 38 -19l130 -174l129 172c10 14 22 21 37 21c22 0 38 -17 38 -41c0 -10 -4 -20 -12 -31l-141 -186l155 -202c13 -17 19 -32 19 -50c0 -20 -17 -35 -37 -35c-17 0 -32 9 -47 30l-141 195l-146 -203c-12 -16 -25 -22 -43 -22c-20 0 -39 16 -39 39
c0 10 5 26 17 41l161 207l-141 184c-9 12 -16 27 -16 38c0 20 19 36 39 36z" />
    <glyph glyph-name="afii10088" unicode="&#x446;" horiz-adv-x="548" 
d="M146 76h239v418c0 26 16 45 44 45c25 0 43 -15 43 -45v-418h28c20 0 38 -13 38 -41v-154c0 -24 -13 -41 -38 -41c-27 0 -39 16 -39 41v119h-358c-27 0 -44 21 -44 45v449c0 30 22 45 44 45c27 0 43 -17 43 -43v-420z" />
    <glyph glyph-name="afii10089" unicode="&#x447;" horiz-adv-x="489" 
d="M84 539c23 0 44 -17 44 -47v-108c0 -71 41 -101 101 -101c32 0 85 15 114 41v168c0 29 18 47 43 47s44 -17 44 -47v-453c0 -30 -19 -45 -41 -45c-27 0 -46 17 -46 43v211c-26 -18 -93 -37 -122 -37c-100 0 -180 46 -180 173v108c0 28 18 47 43 47z" />
    <glyph glyph-name="afii10090" unicode="&#x448;" horiz-adv-x="779" 
d="M146 76h200v418c0 30 19 45 43 45c29 0 44 -17 44 -43v-420h200v420c0 26 19 43 46 43c22 0 41 -15 41 -45v-449c0 -24 -17 -45 -43 -45h-574c-27 0 -44 21 -44 45v449c0 30 19 45 41 45c27 -1 46 -17 46 -43v-420z" />
    <glyph glyph-name="afii10091" unicode="&#x449;" horiz-adv-x="794" 
d="M146 76h200v418c0 30 20 45 42 45c30 0 45 -17 45 -43v-420h200v420c0 25 18 43 46 43c22 0 41 -15 41 -45v-418h26c21 0 38 -13 38 -41v-154c0 -24 -14 -41 -36 -41c-23 0 -41 14 -41 39v121h-605c-26 0 -43 21 -43 45v449c0 30 19 45 41 45c27 -1 46 -18 46 -44v-419z
" />
    <glyph glyph-name="afii10092" unicode="&#x44a;" horiz-adv-x="591" 
d="M49 532h142c30 0 42 -22 42 -47v-141h101c95 0 222 -28 222 -169c0 -126 -99 -175 -219 -175h-140c-40 0 -51 18 -51 50v406h-97c-25 0 -44 14 -44 37c0 25 17 39 44 39zM233 268v-192h85c71 0 144 16 144 99c0 75 -58 93 -141 93h-88z" />
    <glyph glyph-name="afii10093" unicode="&#x44b;" horiz-adv-x="662" 
d="M559 539c26 0 44 -18 44 -45v-455c0 -26 -18 -45 -44 -45c-24 0 -43 19 -43 45v453c0 27 18 47 43 47zM102 539c24 0 44 -17 44 -47v-148h101c95 0 222 -28 222 -169c0 -126 -99 -175 -219 -175h-140c-40 0 -51 18 -51 50v442c0 29 19 47 43 47zM146 268v-192h85
c71 0 144 16 144 99c0 75 -58 93 -141 93h-88z" />
    <glyph glyph-name="afii10094" unicode="&#x44c;" horiz-adv-x="504" 
d="M102 539c24 0 44 -17 44 -47v-148h101c95 0 222 -28 222 -169c0 -126 -99 -175 -219 -175h-140c-40 0 -51 18 -51 50v442c0 29 19 47 43 47zM146 268v-192h85c71 0 144 16 144 99c0 75 -58 93 -141 93h-88z" />
    <glyph glyph-name="afii10095" unicode="&#x44d;" horiz-adv-x="456" 
d="M183 539c149 0 238 -116 238 -270c0 -156 -99 -275 -242 -275c-55 0 -144 11 -144 69c0 24 18 34 37 34c28 0 57 -27 107 -27c96 0 148 83 148 164h-168c-22 0 -37 17 -37 37c0 23 15 39 41 39h164c0 99 -66 153 -148 153c-57 0 -75 -29 -107 -29c-18 0 -36 13 -36 37
c0 37 54 68 147 68z" />
    <glyph glyph-name="afii10096" unicode="&#x44e;" horiz-adv-x="722" 
d="M146 324h89c21 127 101 215 219 215c146 0 233 -126 233 -272c0 -144 -78 -273 -228 -273c-156 0 -215 112 -224 254h-89v-211c0 -26 -19 -43 -46 -43c-22 0 -41 15 -41 45v453c0 29 19 47 43 47s44 -17 44 -47v-168zM452 463c-87 0 -130 -79 -130 -197
c0 -110 38 -196 137 -196c92 0 141 92 141 197c0 111 -57 196 -148 196z" />
    <glyph glyph-name="afii10097" unicode="&#x44f;" horiz-adv-x="504" 
d="M358 231h-82l-159 -215c-11 -15 -25 -22 -41 -22c-22 0 -41 15 -41 39c0 11 6 27 17 41l133 168c-76 9 -137 56 -137 137c0 115 95 160 180 160h159c44 0 58 -12 58 -55v-445c0 -28 -18 -45 -43 -45c-24 0 -44 15 -44 45v192zM358 298v165h-108c-62 0 -108 -24 -108 -83
c0 -62 52 -82 103 -82h113z" />
    <glyph glyph-name="sterling" unicode="&#xa3;" horiz-adv-x="594" 
d="M172 319h-104c-28 0 -43 12 -43 39c0 23 17 37 45 37h81c-31 52 -49 108 -49 146c0 113 117 178 222 178c106 0 223 -95 223 -175c0 -29 -19 -46 -47 -46c-18 0 -28 14 -45 49c-32 66 -78 90 -141 90c-64 0 -125 -36 -125 -110c0 -27 18 -77 53 -132h142
c24 0 41 -13 41 -39c0 -20 -16 -37 -37 -37h-126c4 -16 7 -39 7 -61c0 -59 -31 -124 -87 -182h319c26 0 41 -14 41 -39c0 -24 -15 -37 -41 -37h-392c-21 0 -43 14 -43 35c0 58 116 87 116 219c0 13 -4 47 -10 65z" />
    <glyph glyph-name="florin" unicode="&#x192;" 
d="M213 418h-63c-10 0 -19 3 -25 9c-7 7 -11 13 -12 22c1 9 5 16 11 22s15 9 26 9h71l31 157c7 39 20 67 40 86c19 19 39 30 60 35c22 4 46 6 74 6c13 0 23 -3 30 -11c7 -6 11 -14 11 -24s-4 -18 -11 -25s-17 -11 -30 -11c-21 0 -38 -2 -51 -5s-23 -11 -32 -22
s-15 -29 -21 -53l-31 -133h63c11 0 20 -3 26 -9s9 -13 9 -22c0 -8 -3 -15 -10 -22c-5 -6 -14 -9 -25 -9h-71l-78 -418c-7 -47 -19 -83 -38 -109c-17 -25 -37 -43 -60 -52c-23 -8 -48 -13 -76 -13c-14 0 -26 4 -35 11c-8 7 -12 17 -12 28c0 9 3 17 10 24c7 6 17 8 29 9
c30 0 54 7 72 22c19 15 32 46 40 96z" />
    <glyph glyph-name="acute" unicode="&#xb4;" horiz-adv-x="203" 
d="M189 900c21 0 41 -18 41 -39c0 -16 -10 -28 -32 -37l-110 -46c-13 -5 -26 -8 -37 -8c-21 0 -41 14 -41 35c0 17 17 34 38 43l109 45c10 4 21 7 32 7z" />
    <glyph glyph-name="circumflex" unicode="&#x2c6;" horiz-adv-x="203" 
d="M102 736l130 -56c9 -3 15 -8 19 -15c5 -8 7 -16 7 -24c0 -9 -3 -17 -9 -24c-7 -7 -16 -11 -28 -12c-9 2 -17 4 -24 6l-95 39l-94 -37c-6 -2 -15 -5 -29 -8c-10 0 -19 3 -25 11c-6 7 -9 15 -9 25c0 20 8 33 24 39z" />
    <glyph glyph-name="tilde" unicode="&#x2dc;" horiz-adv-x="203" 
d="M-35 688c17 20 43 29 78 29c15 0 34 -3 59 -9c24 -6 41 -10 50 -11c7 1 17 4 32 11c14 6 25 9 33 9c10 0 17 -4 24 -11c6 -8 9 -17 9 -26c0 -21 -10 -36 -30 -47c-20 -10 -42 -16 -66 -18c-3 1 -6 2 -9 2c-9 0 -24 3 -46 9c-21 6 -38 9 -50 9c-8 0 -21 -3 -36 -9
s-24 -10 -27 -11c-11 5 -19 10 -24 16c-4 5 -7 13 -7 23c0 14 3 26 10 34z" />
    </font>
</defs>
</svg>
