<?xml version="1.0" encoding="UTF-8" standalone="no"?>
<!-- Created with Inkscape (http://www.inkscape.org/) -->

<svg
   xmlns:dc="http://purl.org/dc/elements/1.1/"
   xmlns:cc="http://creativecommons.org/ns#"
   xmlns:rdf="http://www.w3.org/1999/02/22-rdf-syntax-ns#"
   xmlns:svg="http://www.w3.org/2000/svg"
   xmlns="http://www.w3.org/2000/svg"
   xmlns:sodipodi="http://sodipodi.sourceforge.net/DTD/sodipodi-0.dtd"
   xmlns:inkscape="http://www.inkscape.org/namespaces/inkscape"
   width="48"
   height="63"
   viewBox="0 0 48 63"
   id="svg3354"
   version="1.1"
   inkscape:version="0.91 r13725"
   sodipodi:docname="map-marker.svg">
  <defs
     id="defs3356" />
  <sodipodi:namedview
     id="base"
     pagecolor="#ffffff"
     bordercolor="#666666"
     borderopacity="1.0"
     inkscape:pageopacity="0.0"
     inkscape:pageshadow="2"
     inkscape:zoom="1"
     inkscape:cx="34.306511"
     inkscape:cy="41.567497"
     inkscape:document-units="px"
     inkscape:current-layer="layer1"
     showgrid="false"
     units="px"
     inkscape:window-width="1680"
     inkscape:window-height="984"
     inkscape:window-x="0"
     inkscape:window-y="27"
     inkscape:window-maximized="1" />
  <metadata
     id="metadata3359">
    <rdf:RDF>
      <cc:Work
         rdf:about="">
        <dc:format>image/svg+xml</dc:format>
        <dc:type
           rdf:resource="http://purl.org/dc/dcmitype/StillImage" />
        <dc:title></dc:title>
      </cc:Work>
    </rdf:RDF>
  </metadata>
  <g
     inkscape:label="Layer 1"
     inkscape:groupmode="layer"
     id="layer1"
     transform="translate(0,-989.36216)">
    <g
       transform="matrix(1.7177747,0,0,1.7177747,-18.133576,975.19582)"
       id="g3339">
      <path
         style="clip-rule:evenodd;fill:#264258;fill-rule:evenodd"
         inkscape:connector-curvature="0"
         id="path3"
         d="m 25.537,10.982 c -6.935,-0.046 -12.592,5.691 -12.639,12.813 -0.067,10.718 12.416,19.963 12.416,19.963 0,0 12.628,-9.077 12.696,-19.798 0.045,-7.122 -5.538,-12.933 -12.473,-12.978 z m -0.088,17.086 c -2.552,0 -4.621,-2.068 -4.621,-4.62 0,-2.551 2.069,-4.62 4.621,-4.62 2.549,0 4.62,2.069 4.62,4.62 -10e-4,2.552 -2.071,4.62 -4.62,4.62 z" />
      <path
         style="clip-rule:evenodd;fill:#ffd60a;fill-rule:evenodd"
         inkscape:connector-curvature="0"
         id="path5"
         d="m 24.36,9.625 c -6.935,-0.046 -12.592,5.691 -12.639,12.813 -0.067,10.718 12.416,19.963 12.416,19.963 0,0 12.628,-9.077 12.696,-19.798 C 36.878,15.481 31.295,9.669 24.36,9.625 Z m -0.088,17.086 c -2.552,0 -4.621,-2.068 -4.621,-4.62 0,-2.551 2.069,-4.62 4.621,-4.62 2.549,0 4.62,2.069 4.62,4.62 0,2.552 -2.071,4.62 -4.62,4.62 z" />
    </g>
  </g>
</svg>
