<?xml version="1.0" encoding="UTF-8" standalone="no"?>
<!-- Created with Inkscape (http://www.inkscape.org/) -->

<svg
   xmlns:dc="http://purl.org/dc/elements/1.1/"
   xmlns:cc="http://creativecommons.org/ns#"
   xmlns:rdf="http://www.w3.org/1999/02/22-rdf-syntax-ns#"
   xmlns:svg="http://www.w3.org/2000/svg"
   xmlns="http://www.w3.org/2000/svg"
   version="1.1"
   width="100"
   height="100"
   id="svg3054">
  <defs
     id="defs3056" />
  <metadata
     id="metadata3059">
    <rdf:RDF>
      <cc:Work
         rdf:about="">
        <dc:format>image/svg+xml</dc:format>
        <dc:type
           rdf:resource="http://purl.org/dc/dcmitype/StillImage" />
        <dc:title></dc:title>
      </cc:Work>
    </rdf:RDF>
  </metadata>
  <g
     transform="translate(0,-952.36218)"
     id="layer1">
    <g
       transform="matrix(1.3206638,0,0,-1.320676,0,1052.3622)"
       id="g10">
      <g
         transform="scale(0.1,0.1)"
         id="g12">
        <path
           d="M 606.516,186.953 C 565.906,139.902 493.723,93.0859 388.203,90.4492 c -0.82,-0.0195 -1.594,-0.2344 -2.402,-0.2344 l -1.946,0 c -0.796,0 -1.57,0.0586 -2.351,0.0586 -0.891,0 -1.692,-0.0586 -2.539,-0.0586 -0.637,0 -1.309,0 -1.985,0 -0.875,0 -1.675,0.2149 -2.507,0.254 -105.43,2.6757 -177.578,49.4722 -218.211,96.4842 -42.563,48.684 -55.324,95.422 -56.555,99.602 l 0.0274,0 c -6.8164,25.007 7.9926,50.781 32.9926,57.558 25.007,6.785 50.781,-8.019 57.578,-33.027 l 0.015,-0.129 c 0.215,-0.594 0.578,-1.719 1.118,-3.281 1.128,-3.094 3.027,-7.996 5.898,-14.012 5.684,-12.051 15.184,-28.496 29.422,-44.66 28.547,-31.524 72.258,-63.125 154.746,-64.785 77.18,1.543 120.137,29.472 149.016,58.742 28.992,29.922 40.652,63.437 41.929,67.988 l 0.031,0.125 c 6.817,25.012 32.586,39.805 57.618,33.039 24.968,-6.777 39.773,-32.57 33.007,-57.558 -1.269,-4.2 -13.984,-50.918 -56.589,-99.602 M 378.605,757.188 C 169.473,757.18 0,587.676 0,378.586 0,169.512 169.473,0 378.605,0 c 209.083,0 378.59,169.512 378.59,378.586 0,209.09 -169.507,378.602 -378.59,378.602"
           id="path14"
           style="fill:#f5ce08;fill-opacity:1;fill-rule:nonzero;stroke:none" />
      </g>
    </g>
  </g>
</svg>
