<?xml version="1.0" encoding="UTF-8" standalone="no"?>
<!-- Generator: Adobe Illustrator 16.0.0, SVG Export Plug-In . SVG Version: 6.00 Build 0)  -->

<svg
   xmlns:dc="http://purl.org/dc/elements/1.1/"
   xmlns:cc="http://creativecommons.org/ns#"
   xmlns:rdf="http://www.w3.org/1999/02/22-rdf-syntax-ns#"
   xmlns:svg="http://www.w3.org/2000/svg"
   xmlns="http://www.w3.org/2000/svg"
   xmlns:xlink="http://www.w3.org/1999/xlink"
   xmlns:sodipodi="http://sodipodi.sourceforge.net/DTD/sodipodi-0.dtd"
   xmlns:inkscape="http://www.inkscape.org/namespaces/inkscape"
   version="1.1"
   id="Layer_1"
   x="0px"
   y="0px"
   width="226.957px"
   height="225.951px"
   viewBox="0 0 226.957 225.951"
   enable-background="new 0 0 226.957 225.951"
   xml:space="preserve"
   inkscape:version="0.48.5 r10040"
   sodipodi:docname="pattern.svg"><metadata
     id="metadata201"><rdf:RDF><cc:Work
         rdf:about=""><dc:format>image/svg+xml</dc:format><dc:type
           rdf:resource="http://purl.org/dc/dcmitype/StillImage" /><dc:title></dc:title></cc:Work></rdf:RDF></metadata><defs
     id="defs199" /><sodipodi:namedview
     pagecolor="#ffffff"
     bordercolor="#666666"
     borderopacity="1"
     objecttolerance="10"
     gridtolerance="10"
     guidetolerance="10"
     inkscape:pageopacity="0"
     inkscape:pageshadow="2"
     inkscape:window-width="1366"
     inkscape:window-height="702"
     id="namedview197"
     showgrid="false"
     inkscape:zoom="1"
     inkscape:cx="85.799722"
     inkscape:cy="112.07376"
     inkscape:window-x="0"
     inkscape:window-y="27"
     inkscape:window-maximized="1"
     inkscape:current-layer="Layer_1" /><g
     id="g3"><defs
       id="defs5"><rect
         id="Mask"
         width="226.957"
         height="225.951" /></defs><clipPath
       id="Mask_1_"><use
         xlink:href="#Mask"
         overflow="visible"
         id="use9" /></clipPath><g
       opacity="0.1"
       clip-path="url(#Mask_1_)"
       id="g11"><g
         id="g13"><path
           fill="#46B0D3"
           d="M42.735,235.015l-0.038-0.042c-1.568,0.697-2.889,0.461-3.963-0.712     c-0.686-0.748-0.958-1.606-0.816-2.578c0.141-0.971,0.686-1.892,1.635-2.761c1.255-1.151,2.586-1.795,3.994-1.929     c1.406-0.135,2.581,0.312,3.521,1.337c0.358,0.392,0.571,0.839,0.636,1.342c0.067,0.505-0.009,0.939-0.227,1.305l0.022,0.024     c0.171-0.126,0.53-0.378,1.077-0.757l1.274,1.391c-3.188,2.438-4.808,3.682-4.864,3.734c-1.104,1.013-1.393,1.806-0.866,2.381     c0.481,0.524,1.188,0.676,2.121,0.458c0.934-0.221,1.893-0.778,2.874-1.679c1.451-1.331,2.207-2.884,2.266-4.66     c0.063-1.775-0.668-3.493-2.187-5.148c-1.458-1.59-3.22-2.397-5.286-2.424c-2.067-0.025-3.935,0.727-5.603,2.255     c-1.646,1.511-2.513,3.229-2.602,5.16c-0.089,1.929,0.645,3.744,2.206,5.447c1.228,1.339,2.508,2.275,3.84,2.81l-1.289,1.182     c-1.308-0.598-2.633-1.627-3.974-3.089c-1.882-2.054-2.783-4.271-2.708-6.651c0.077-2.38,1.108-4.481,3.094-6.302     c2.042-1.873,4.344-2.761,6.906-2.665c2.562,0.095,4.789,1.175,6.682,3.239c1.774,1.936,2.681,4.054,2.717,6.356     c0.038,2.303-0.851,4.285-2.665,5.948c-1.327,1.217-2.733,1.871-4.216,1.963c-1.481,0.091-2.678-0.362-3.587-1.354     C41.531,237.313,41.54,236.12,42.735,235.015z M46.009,229.564c-0.562-0.613-1.318-0.832-2.265-0.657     c-0.949,0.176-1.871,0.676-2.769,1.499c-0.603,0.554-0.963,1.115-1.079,1.688c-0.116,0.574,0.021,1.072,0.41,1.496     c0.562,0.614,1.325,0.81,2.285,0.586c0.96-0.223,1.962-0.813,3.005-1.771C46.689,231.403,46.827,230.457,46.009,229.564z"
           id="path15" /></g><g
         id="g17"><path
           fill="#46B0D3"
           d="M42.754,9.065l-0.038-0.042c-1.568,0.697-2.889,0.461-3.963-0.712c-0.686-0.748-0.958-1.606-0.816-2.578     c0.141-0.971,0.686-1.892,1.635-2.761c1.255-1.151,2.586-1.795,3.994-1.929c1.406-0.135,2.581,0.312,3.521,1.337     c0.358,0.392,0.571,0.839,0.636,1.342c0.067,0.505-0.009,0.939-0.227,1.305l0.022,0.024c0.171-0.126,0.53-0.378,1.077-0.757     l1.274,1.391c-3.188,2.438-4.808,3.682-4.864,3.734c-1.104,1.013-1.393,1.806-0.866,2.381c0.481,0.524,1.188,0.676,2.121,0.458     c0.934-0.221,1.893-0.778,2.874-1.679c1.451-1.331,2.207-2.884,2.266-4.66c0.063-1.775-0.668-3.493-2.187-5.148     c-1.458-1.59-3.22-2.397-5.286-2.424c-2.067-0.025-3.935,0.727-5.603,2.255c-1.646,1.511-2.513,3.229-2.602,5.16     c-0.089,1.929,0.645,3.744,2.206,5.447c1.228,1.339,2.508,2.275,3.84,2.81l-1.289,1.182c-1.308-0.598-2.633-1.627-3.974-3.089     c-1.882-2.054-2.783-4.271-2.708-6.651c0.077-2.38,1.108-4.481,3.094-6.302c2.042-1.873,4.344-2.761,6.906-2.665     c2.562,0.095,4.789,1.175,6.682,3.239c1.774,1.936,2.681,4.054,2.717,6.356c0.038,2.303-0.851,4.285-2.665,5.948     c-1.327,1.217-2.733,1.871-4.216,1.963c-1.481,0.091-2.678-0.362-3.587-1.354C41.551,11.363,41.56,10.169,42.754,9.065z      M46.028,3.614C45.466,3,44.71,2.782,43.763,2.957c-0.949,0.176-1.871,0.676-2.769,1.499c-0.603,0.554-0.963,1.115-1.079,1.688     c-0.116,0.574,0.021,1.072,0.41,1.496c0.562,0.614,1.325,0.81,2.285,0.586c0.96-0.223,1.962-0.813,3.005-1.771     C46.709,5.453,46.847,4.506,46.028,3.614z"
           id="path19" /></g><g
         id="g21"><path
           fill="#46B0D3"
           d="M35.236,133.043c-1.3-2.138-3.295-2.825-5.767-1.988c-1.291,0.437-2.559,0.904-3.489,1.26     c0.062-1.041-0.038-2.461-0.698-3.977c-2.018-4.633-4.447-4.037-5.145-3.745c-1.408,0.591-1.19,2.195-0.996,3.611     c0.118,0.86,0.251,1.839,0.103,2.689c-0.291,1.669-1.398,3.641-2.208,4.746c-0.339-0.641-1.113-0.935-1.795-0.648l-8.688,3.648     c-0.721,0.303-1.061,1.135-0.757,1.856l7.211,17.173c0.303,0.72,1.133,1.06,1.854,0.758l8.688-3.649     c0.55-0.23,0.876-0.77,0.866-1.333c1.549-0.331,5.425-1.201,7.083-1.897c1.82-0.764,3.956-1.868,4.63-2.612     c0.48-0.532,1.48-1.637,1.251-3.376c-0.11-0.835-0.516-1.501-0.906-1.969c0.505-0.557,1.047-1.424,1.052-2.58     c0.009-1.826-0.937-2.839-2.14-3.553C36.563,135.585,35.971,134.251,35.236,133.043z M22.5,153.267l-7.982,3.353l-6.915-16.467     l7.983-3.353L22.5,153.267z M33.349,137.186c-0.184,0.214-0.256,0.501-0.196,0.777c0.06,0.275,0.247,0.508,0.503,0.625     c1.573,0.724,2.075,1.311,2.07,2.412c-0.006,1.115-1.047,1.793-1.051,1.796c-0.255,0.158-0.414,0.435-0.425,0.734     c-0.011,0.3,0.13,0.587,0.374,0.765c0.008,0.006,0.856,0.631,0.972,1.499c0.111,0.842-0.317,1.396-0.803,1.932     c-0.296,0.329-1.848,1.261-3.992,2.16c-1.592,0.67-5.696,1.572-6.992,1.849l-5.978-14.237c1.092-1.139,2.783-3.976,3.188-6.293     c0.196-1.127,0.042-2.251-0.093-3.244c-0.083-0.604-0.207-1.516-0.09-1.708c0.809-0.341,1.907,0.761,2.796,2.805     c1.005,2.308,0.359,4.365,0.354,4.382c-0.111,0.333-0.019,0.7,0.236,0.942c0.256,0.24,0.628,0.31,0.954,0.179     c0.024-0.01,2.402-0.964,4.872-1.8c1.669-0.565,2.795-0.189,3.652,1.22C34.353,135.056,34.634,135.687,33.349,137.186z"
           id="path23" /><path
           fill="#46B0D3"
           d="M17.774,153.192c0.905-0.381,1.333-1.425,0.953-2.333c-0.381-0.904-1.426-1.332-2.333-0.952     c-0.907,0.381-1.333,1.427-0.952,2.333S16.867,153.573,17.774,153.192z"
           id="path25" /></g><g
         id="g27"><path
           fill="#46B0D3"
           d="M83.852,146.114c-3.407,1.521-4.936,5.517-3.415,8.924c1.521,3.407,5.516,4.938,8.923,3.417     c3.408-1.521,4.937-5.517,3.416-8.924C91.255,146.123,87.26,144.593,83.852,146.114z M88.626,156.811     c-2.495,1.113-5.433-0.011-6.547-2.507c-1.114-2.496,0.011-5.433,2.506-6.547c2.495-1.113,5.433,0.011,6.547,2.507     C92.247,152.76,91.122,155.697,88.626,156.811z"
           id="path29" /><path
           fill="#46B0D3"
           d="M80.823,139.327c-7.155,3.193-10.367,11.585-7.173,18.74c4.131,9.255,22.319,15.195,22.319,15.195     s7.614-17.753,3.594-26.761C96.368,139.346,87.979,136.132,80.823,139.327z M94.938,170.982     c-4.392-1.65-16.568-6.753-19.646-13.648c-2.784-6.239,0.025-13.579,6.264-16.363c6.237-2.784,13.578,0.025,16.363,6.265     C100.915,153.945,96.619,166.567,94.938,170.982z"
           id="path31" /></g><g
         id="g33"><path
           fill="#46B0D3"
           d="M162.882,196.411c-3.822,3.67-3.944,9.743-0.273,13.564c3.67,3.822,9.743,3.944,13.564,0.273     c3.821-3.67,3.944-9.743,0.273-13.564S166.703,192.74,162.882,196.411z M175.342,209.383c-3.338,3.206-8.662,3.099-11.868-0.239     s-3.099-8.662,0.239-11.868s8.662-3.099,11.868,0.239C178.786,200.853,178.68,206.177,175.342,209.383z"
           id="path35" /><path
           fill="#46B0D3"
           d="M159.324,192.708c-5.866,5.635-6.055,14.958-0.42,20.824c4.693,4.887,11.939,5.819,17.622,2.743     l8.757,9.117c0.542,0.563,1.439,0.582,2.003,0.041l3.609-3.467c0.564-0.542,0.583-1.439,0.041-2.004l-8.757-9.117     c3.303-5.555,2.663-12.832-2.03-17.718C174.515,187.26,165.191,187.072,159.324,192.708z M180.632,209.925l-0.7,1.178     l0.949,0.989l8.492,8.841l-3.057,2.936l-8.492-8.841l-0.949-0.989l-1.205,0.653c-5.097,2.759-11.457,1.769-15.467-2.406     c-4.938-5.142-4.773-13.342,0.368-18.28s13.342-4.773,18.28,0.368C182.861,198.549,183.595,204.944,180.632,209.925z"
           id="path37" /></g><g
         id="g39"><path
           fill="#46B0D3"
           d="M59.259,184.653l-4.83-13.962c-0.256-0.74-1.063-1.131-1.802-0.875l-22.993,7.954     c-0.739,0.256-1.132,1.062-0.876,1.802l4.83,13.962c0.256,0.74,1.063,1.132,1.803,0.877l22.993-7.954     C59.123,186.201,59.516,185.393,59.259,184.653z M34.998,193.275c-0.113,0.039-0.236-0.021-0.276-0.134l-4.83-13.962     c-0.039-0.112,0.021-0.236,0.134-0.275l22.993-7.954c0.114-0.039,0.237,0.021,0.276,0.134l4.83,13.962     c0.039,0.113-0.021,0.236-0.134,0.275L34.998,193.275z"
           id="path41" /><path
           fill="#46B0D3"
           d="M57.643,174.465l1.812,5.236c0.108,0.313,0.45,0.479,0.763,0.371c0.312-0.108,0.479-0.45,0.371-0.763     l-1.812-5.236c-0.109-0.314-0.45-0.48-0.763-0.372S57.534,174.152,57.643,174.465z"
           id="path43" /><path
           fill="#46B0D3"
           d="M30.055,186.94c-0.585-1.693-2.432-2.59-4.124-2.005c-1.692,0.586-2.59,2.432-2.004,4.124     c0.585,1.693,2.432,2.591,4.124,2.005C29.744,190.479,30.64,188.632,30.055,186.94z M25.061,188.667     c-0.368-1.064,0.198-2.229,1.262-2.598c1.064-0.368,2.229,0.198,2.597,1.262c0.368,1.065-0.198,2.23-1.262,2.599     C26.594,190.298,25.429,189.732,25.061,188.667z"
           id="path45" /><path
           fill="#46B0D3"
           d="M66.367,185.278l-6.735-19.468c-0.409-1.185-1.701-1.811-2.884-1.401l-37.577,12.999     c-1.183,0.409-1.812,1.7-1.402,2.884l6.735,19.468c0.409,1.184,1.701,1.811,2.884,1.401l37.577-12.999     C66.148,187.752,66.776,186.46,66.367,185.278z M26.8,199.459c-0.244,0.084-0.51-0.045-0.595-0.288l-6.734-19.468     c-0.084-0.244,0.045-0.512,0.289-0.597l37.577-12.999c0.244-0.084,0.511,0.047,0.595,0.29l6.734,19.468     c0.084,0.244-0.046,0.51-0.29,0.595L26.8,199.459z"
           id="path47" /></g><g
         id="g49"><path
           fill="#46B0D3"
           d="M91.993,203.647c-6.195-2.387-13.152,0.698-15.539,6.894c-1.452,3.77,0.024,9.014,0.279,11.034     c0.339,2.667-4.086,10.271-2.833,12.549c0.599,1.093,1.961,3.55,4.592,4.564c2.631,1.014,5.29,0.104,6.468-0.304     c2.456-0.85,4.277-9.454,6.318-11.205c1.545-1.328,6.159-4.226,7.611-7.994C101.275,212.99,98.188,206.034,91.993,203.647z      M83.636,236.934l-7.785-3c-0.141-0.235-0.265-0.456-0.362-0.629c-0.089-0.282-0.006-0.849,0.164-1.535l9.593,3.697     c-0.326,0.614-0.634,1.084-0.871,1.226C84.171,236.764,83.915,236.847,83.636,236.934z M76.16,230.046     c0.191-0.578,0.395-1.154,0.578-1.663l9.968,3.84c-0.207,0.502-0.441,1.065-0.687,1.621L76.16,230.046z M77.349,226.698     c0.207-0.578,0.401-1.136,0.569-1.668l10.164,3.917c-0.233,0.505-0.463,1.05-0.698,1.617L77.349,226.698z M91.363,224.833     c-0.494,0.377-0.92,0.702-1.253,0.988c-0.437,0.376-0.829,0.899-1.202,1.522l-10.528-4.056c0.144-0.713,0.203-1.364,0.131-1.937     c-0.055-0.436-0.153-0.962-0.266-1.572c-0.416-2.25-1.113-6.013-0.118-8.594c2.027-5.263,7.96-7.896,13.223-5.868     c5.263,2.028,7.895,7.96,5.867,13.224C96.223,221.121,93.181,223.444,91.363,224.833z"
           id="path51" /><path
           fill="#46B0D3"
           d="M70.427,220.505l-4.767,2.116c-0.452,0.2-0.655,0.729-0.456,1.181c0.101,0.228,0.282,0.391,0.496,0.474     c0.214,0.081,0.458,0.082,0.685-0.017l4.769-2.117c0.452-0.2,0.656-0.729,0.455-1.182     C71.409,220.509,70.878,220.303,70.427,220.505z"
           id="path53" /><path
           fill="#46B0D3"
           d="M96.208,230.439c-0.201-0.453-0.729-0.656-1.18-0.456c-0.452,0.201-0.656,0.73-0.456,1.183l2.115,4.769     c0.1,0.225,0.283,0.39,0.497,0.471c0.213,0.083,0.459,0.085,0.686-0.016c0.452-0.2,0.656-0.73,0.455-1.183L96.208,230.439z"
           id="path55" /><path
           fill="#46B0D3"
           d="M78.03,194.035c-0.201-0.452-0.729-0.656-1.18-0.455c-0.453,0.2-0.656,0.729-0.456,1.183l2.115,4.768     c0.1,0.226,0.282,0.39,0.496,0.473c0.214,0.082,0.459,0.083,0.686-0.018c0.452-0.2,0.656-0.729,0.455-1.182L78.03,194.035z"
           id="path57" /><path
           fill="#46B0D3"
           d="M103.604,209.481c0.215,0.082,0.457,0.082,0.686-0.018l4.769-2.116c0.451-0.2,0.655-0.729,0.454-1.183     c-0.199-0.45-0.729-0.655-1.182-0.455l-4.766,2.117c-0.454,0.2-0.658,0.73-0.457,1.181     C103.209,209.235,103.392,209.398,103.604,209.481z"
           id="path59" /><path
           fill="#46B0D3"
           d="M71.996,208.073c0.178-0.46-0.052-0.98-0.514-1.157l-4.868-1.876c-0.46-0.177-0.979,0.053-1.157,0.514     c-0.178,0.462,0.052,0.981,0.513,1.158l4.868,1.875C71.299,208.765,71.818,208.535,71.996,208.073z"
           id="path61" /><path
           fill="#46B0D3"
           d="M92.542,198.956c0.462,0.178,0.98-0.052,1.158-0.513l1.875-4.869c0.178-0.461-0.052-0.979-0.513-1.157     c-0.461-0.177-0.98,0.052-1.158,0.514l-1.876,4.868C91.851,198.26,92.081,198.778,92.542,198.956z"
           id="path63" /><path
           fill="#46B0D3"
           d="M108.747,223.257l-4.867-1.877c-0.462-0.178-0.98,0.054-1.157,0.515     c-0.179,0.461,0.051,0.979,0.512,1.157l4.865,1.876c0.464,0.178,0.98-0.052,1.158-0.514     C109.438,223.954,109.208,223.434,108.747,223.257z"
           id="path65" /></g><g
         id="g67"><path
           fill="#46B0D3"
           d="M91.993-22.343c-6.195-2.387-13.152,0.698-15.539,6.894c-1.452,3.77,0.024,9.014,0.279,11.034     C77.072-1.749,72.647,5.855,73.9,8.133c0.599,1.093,1.961,3.55,4.592,4.564c2.631,1.014,5.29,0.104,6.468-0.304     c2.456-0.85,4.277-9.454,6.318-11.205c1.545-1.328,6.159-4.226,7.611-7.994C101.275-13,98.188-19.957,91.993-22.343z      M83.636,10.944l-7.785-3c-0.141-0.235-0.265-0.456-0.362-0.629C75.4,7.033,75.483,6.466,75.653,5.78l9.593,3.697     c-0.326,0.614-0.634,1.084-0.871,1.226C84.171,10.774,83.915,10.857,83.636,10.944z M76.16,4.056     c0.191-0.578,0.395-1.154,0.578-1.663l9.968,3.84C86.5,6.735,86.265,7.298,86.02,7.854L76.16,4.056z M77.349,0.708     c0.207-0.578,0.401-1.136,0.569-1.668l10.164,3.917c-0.233,0.505-0.463,1.05-0.698,1.617L77.349,0.708z M91.363-1.158     c-0.494,0.377-0.92,0.702-1.253,0.988c-0.437,0.376-0.829,0.899-1.202,1.522L78.379-2.703c0.144-0.713,0.203-1.364,0.131-1.937     c-0.055-0.436-0.153-0.962-0.266-1.572c-0.416-2.25-1.113-6.013-0.118-8.594c2.027-5.263,7.96-7.896,13.223-5.868     c5.263,2.028,7.895,7.96,5.867,13.224C96.223-4.87,93.181-2.546,91.363-1.158z"
           id="path69" /><path
           fill="#46B0D3"
           d="M70.427-5.485L65.66-3.369c-0.452,0.2-0.655,0.729-0.456,1.181c0.101,0.228,0.282,0.391,0.496,0.474     c0.214,0.081,0.458,0.082,0.685-0.017l4.769-2.117c0.452-0.2,0.656-0.729,0.455-1.182C71.409-5.481,70.878-5.687,70.427-5.485z"
           id="path71" /><path
           fill="#46B0D3"
           d="M96.208,4.449c-0.201-0.453-0.729-0.656-1.18-0.456c-0.452,0.201-0.656,0.73-0.456,1.183l2.115,4.769     c0.1,0.225,0.283,0.39,0.497,0.471c0.213,0.083,0.459,0.085,0.686-0.016c0.452-0.2,0.656-0.73,0.455-1.183L96.208,4.449z"
           id="path73" /><path
           fill="#46B0D3"
           d="M78.03-31.956c-0.201-0.452-0.729-0.656-1.18-0.455c-0.453,0.2-0.656,0.729-0.456,1.183l2.115,4.768     c0.1,0.226,0.282,0.39,0.496,0.473c0.214,0.082,0.459,0.083,0.686-0.018c0.452-0.2,0.656-0.729,0.455-1.182L78.03-31.956z"
           id="path75" /><path
           fill="#46B0D3"
           d="M103.604-16.509c0.215,0.082,0.457,0.082,0.686-0.018l4.769-2.116c0.451-0.2,0.655-0.729,0.454-1.183     c-0.199-0.45-0.729-0.655-1.182-0.455l-4.766,2.117c-0.454,0.2-0.658,0.73-0.457,1.181     C103.209-16.755,103.392-16.592,103.604-16.509z"
           id="path77" /><path
           fill="#46B0D3"
           d="M71.996-17.917c0.178-0.46-0.052-0.98-0.514-1.157l-4.868-1.876c-0.46-0.177-0.979,0.053-1.157,0.514     c-0.178,0.462,0.052,0.981,0.513,1.158l4.868,1.875C71.299-17.225,71.818-17.456,71.996-17.917z"
           id="path79" /><path
           fill="#46B0D3"
           d="M92.542-27.035c0.462,0.178,0.98-0.052,1.158-0.513l1.875-4.869c0.178-0.461-0.052-0.979-0.513-1.157     c-0.461-0.177-0.98,0.052-1.158,0.514l-1.876,4.868C91.851-27.73,92.081-27.212,92.542-27.035z"
           id="path81" /><path
           fill="#46B0D3"
           d="M108.747-2.733L103.88-4.61c-0.462-0.178-0.98,0.054-1.157,0.515c-0.179,0.461,0.051,0.979,0.512,1.157     l4.865,1.876c0.464,0.178,0.98-0.052,1.158-0.514C109.438-2.037,109.208-2.556,108.747-2.733z"
           id="path83" /></g><g
         id="g85"><path
           fill="#46B0D3"
           d="M133.205,171.046c-3.82,0-6.917,3.097-6.917,6.917s3.097,6.917,6.917,6.917s6.917-3.097,6.917-6.917     S137.025,171.046,133.205,171.046z M133.205,183.081c-2.821,0-5.117-2.296-5.117-5.117s2.296-5.117,5.117-5.117     s5.117,2.296,5.117,5.117S136.026,183.081,133.205,183.081z"
           id="path87" /><path
           fill="#46B0D3"
           d="M146.481,175.082h-2.503c-0.254-0.948-0.626-1.846-1.106-2.677l1.769-1.769     c0.553-0.553,0.473-1.53-0.179-2.182l-1.735-1.735c-0.36-0.36-0.82-0.546-1.254-0.546c-0.35,0-0.681,0.121-0.928,0.368     l-1.769,1.769c-0.831-0.48-1.728-0.853-2.676-1.106v-2.503c0-0.782-0.748-1.417-1.669-1.417h-2.454     c-0.921,0-1.669,0.635-1.669,1.417v2.503c-0.947,0.255-1.845,0.627-2.675,1.106l-1.769-1.77     c-0.247-0.247-0.579-0.367-0.929-0.367c-0.433,0-0.894,0.186-1.254,0.546l-1.735,1.735c-0.651,0.65-0.731,1.629-0.178,2.182     l1.769,1.769c-0.48,0.831-0.853,1.729-1.107,2.677h-2.503c-0.782,0-1.417,0.748-1.417,1.669v2.454     c0,0.921,0.635,1.669,1.417,1.669h2.503c0.254,0.948,0.626,1.846,1.105,2.676l-1.768,1.768c-0.553,0.554-0.473,1.531,0.178,2.183     l1.736,1.735c0.359,0.36,0.82,0.546,1.253,0.546c0.35,0,0.682-0.121,0.929-0.368l1.768-1.768c0.83,0.48,1.729,0.853,2.677,1.107     v2.502c0,0.782,0.748,1.417,1.669,1.417h2.454c0.921,0,1.669-0.635,1.669-1.417v-2.502c0.949-0.254,1.847-0.627,2.678-1.107     l1.768,1.768c0.247,0.247,0.578,0.367,0.928,0.367c0.433,0,0.894-0.186,1.254-0.546l1.735-1.735     c0.651-0.651,0.731-1.629,0.178-2.182l-1.767-1.768c0.479-0.83,0.852-1.728,1.105-2.676h2.502c0.782,0,1.417-0.748,1.417-1.669     v-2.454C147.898,175.83,147.264,175.082,146.481,175.082z M146.093,179.074h-2.113h-1.382l-0.356,1.334     c-0.212,0.791-0.523,1.545-0.926,2.241l-0.69,1.196l0.976,0.977l1.496,1.497l-1.553,1.546l-1.493-1.492l-0.977-0.978     l-1.197,0.691c-0.698,0.404-1.453,0.716-2.241,0.927l-1.335,0.357v1.382v2.118l-2.192-0.005v-2.113v-1.38l-1.333-0.358     c-0.793-0.214-1.548-0.525-2.242-0.927l-1.196-0.693l-0.978,0.979l-1.497,1.496l-1.547-1.554l1.494-1.493l0.977-0.977     l-0.691-1.196c-0.402-0.696-0.714-1.45-0.926-2.241l-0.357-1.334h-1.381h-2.119l0.004-2.192h2.115h1.381l0.357-1.333     c0.213-0.791,0.524-1.545,0.928-2.243l0.691-1.196l-0.977-0.977l-1.498-1.498l1.554-1.546l1.493,1.494l0.978,0.978l1.196-0.691     c0.696-0.402,1.45-0.714,2.242-0.927l1.332-0.358v-1.38v-2.12h2.192v2.12v1.382l1.334,0.356c0.79,0.212,1.544,0.523,2.24,0.927     l1.197,0.691l0.977-0.978l1.498-1.497l1.546,1.553l-1.493,1.494l-0.978,0.977l0.691,1.197c0.403,0.696,0.715,1.45,0.927,2.241     l0.356,1.334h1.382h2.12L146.093,179.074z"
           id="path89" /></g><g
         id="g91"><path
           fill="#46B0D3"
           d="M31.806,86.229c-2.808,0-5.083,2.276-5.083,5.083s2.276,5.083,5.083,5.083s5.083-2.276,5.083-5.083     S34.613,86.229,31.806,86.229z M31.806,95.074c-2.073,0-3.761-1.687-3.761-3.761c0-2.073,1.688-3.761,3.761-3.761     c2.074,0,3.761,1.688,3.761,3.761C35.566,93.387,33.879,95.074,31.806,95.074z"
           id="path93" /><path
           fill="#46B0D3"
           d="M41.563,89.195h-1.839c-0.187-0.697-0.46-1.356-0.813-1.967l1.299-1.3     c0.406-0.406,0.348-1.125-0.131-1.604l-1.275-1.275c-0.265-0.265-0.603-0.401-0.922-0.401c-0.257,0-0.5,0.089-0.682,0.271     l-1.3,1.3c-0.611-0.353-1.27-0.626-1.967-0.813v-1.839c0-0.575-0.55-1.042-1.227-1.042h-1.803c-0.677,0-1.227,0.466-1.227,1.042     v1.839c-0.696,0.188-1.356,0.461-1.966,0.813l-1.3-1.3c-0.182-0.182-0.426-0.27-0.683-0.27c-0.318,0-0.657,0.137-0.922,0.401     l-1.275,1.275c-0.479,0.478-0.538,1.197-0.131,1.604l1.3,1.3c-0.353,0.611-0.626,1.27-0.814,1.967h-1.839     c-0.575,0-1.042,0.549-1.042,1.227v1.803c0,0.677,0.466,1.227,1.042,1.227h1.839c0.187,0.697,0.46,1.356,0.812,1.967     l-1.299,1.299c-0.406,0.407-0.348,1.125,0.13,1.604l1.276,1.275c0.264,0.265,0.603,0.401,0.921,0.401     c0.257,0,0.501-0.089,0.683-0.271l1.299-1.299c0.61,0.353,1.27,0.626,1.967,0.813v1.839c0,0.575,0.55,1.042,1.227,1.042h1.803     c0.677,0,1.227-0.466,1.227-1.042v-1.839c0.698-0.187,1.357-0.46,1.968-0.813l1.299,1.299c0.182,0.182,0.425,0.27,0.682,0.27     c0.318,0,0.657-0.137,0.921-0.401l1.275-1.275c0.479-0.479,0.538-1.197,0.13-1.604l-1.298-1.299     c0.353-0.61,0.626-1.27,0.812-1.967h1.839c0.575,0,1.042-0.55,1.042-1.227v-1.803C42.604,89.745,42.138,89.195,41.563,89.195z      M41.277,92.129h-1.553h-1.015l-0.262,0.98c-0.156,0.582-0.385,1.136-0.68,1.647l-0.508,0.879l0.717,0.718l1.1,1.1l-1.141,1.136     l-1.098-1.097l-0.718-0.718l-0.88,0.508c-0.513,0.297-1.068,0.526-1.647,0.681l-0.981,0.263v1.015v1.557L31,100.795v-1.553     v-1.014l-0.98-0.263c-0.583-0.157-1.138-0.386-1.648-0.681l-0.879-0.51l-0.719,0.719l-1.1,1.1l-1.137-1.142l1.098-1.098     l0.718-0.718l-0.508-0.879c-0.296-0.512-0.525-1.066-0.681-1.647l-0.263-0.98h-1.015H22.33l0.003-1.611h1.555h1.015l0.263-0.98     c0.157-0.581,0.386-1.135,0.682-1.648l0.508-0.879l-0.718-0.718l-1.101-1.101l1.142-1.136l1.098,1.098l0.718,0.718l0.879-0.508     c0.512-0.295,1.066-0.524,1.648-0.681L31,84.419v-1.014v-1.558h1.611v1.558v1.016l0.98,0.262     c0.581,0.156,1.135,0.385,1.646,0.681l0.88,0.508l0.718-0.718l1.101-1.101l1.136,1.141l-1.098,1.098l-0.718,0.718l0.508,0.88     c0.296,0.512,0.525,1.066,0.681,1.647l0.262,0.98h1.016h1.558L41.277,92.129z"
           id="path95" /></g><g
         id="g97"><path
           fill="#46B0D3"
           d="M1.074-7.004c-9.141-2.421-18.063,1.325-19.928,8.366c-1.419,5.357,1.663,11.074,7.242,14.571     l-1.965,7.421l7.89-4.859c0.002,0,0.005,0.001,0.008,0.002c9.141,2.421,18.063-1.325,19.928-8.367     C16.113,3.089,10.215-4.583,1.074-7.004z M-5.227,16.755c-0.477-0.126-0.985-0.052-1.405,0.207l-4.052,2.496l0.811-3.063     c0.202-0.762-0.115-1.567-0.784-1.985c-5.101-3.198-7.636-8.139-6.458-12.586c1.608-6.07,9.562-9.25,17.728-7.086     S14.116,3.598,12.509,9.669C10.901,15.74,2.947,18.92-5.227,16.755z"
           id="path99" /><path
           fill="#46B0D3"
           d="M-1.16-2.199c-8.733-1.874-12.717,4.371-12.757,4.434c-0.174,0.282-0.087,0.65,0.193,0.826     c0.052,0.032,0.107,0.055,0.164,0.07c0.247,0.065,0.52-0.034,0.662-0.262c0.144-0.229,3.602-5.586,11.485-3.894     c0.324,0.07,0.643-0.137,0.713-0.46C-0.631-1.81-0.814-2.108-1.16-2.199z"
           id="path101" /></g><g
         id="g103"><path
           fill="#46B0D3"
           d="M227.882,218.996c-9.141-2.422-18.063,1.325-19.928,8.365c-1.42,5.357,1.662,11.074,7.241,14.572     l-1.966,7.42l7.891-4.859c0.002,0,0.004,0.002,0.008,0.002c9.141,2.422,18.062-1.324,19.928-8.366     C242.921,229.088,237.022,221.417,227.882,218.996z M221.581,242.754c-0.477-0.126-0.984-0.052-1.405,0.206l-4.052,2.496     l0.811-3.062c0.203-0.763-0.115-1.567-0.783-1.986c-5.102-3.197-7.637-8.139-6.459-12.586c1.609-6.07,9.562-9.25,17.729-7.086     c8.166,2.162,13.503,8.861,11.896,14.933C237.708,241.74,229.755,244.919,221.581,242.754z"
           id="path105" /><path
           fill="#46B0D3"
           d="M225.647,223.8c-8.733-1.873-12.717,4.371-12.757,4.434c-0.174,0.282-0.087,0.65,0.193,0.826     c0.052,0.031,0.106,0.055,0.163,0.07c0.248,0.065,0.52-0.034,0.662-0.262c0.145-0.23,3.603-5.587,11.486-3.895     c0.324,0.07,0.643-0.137,0.713-0.461C226.177,224.19,225.993,223.891,225.647,223.8z"
           id="path107" /></g><g
         id="g109"><path
           fill="#46B0D3"
           d="M1.074,218.996c-9.141-2.422-18.063,1.325-19.928,8.365c-1.42,5.357,1.662,11.074,7.241,14.572     l-1.966,7.42l7.891-4.859c0.002,0,0.004,0.002,0.008,0.002c9.141,2.422,18.062-1.324,19.928-8.366     C16.113,229.088,10.215,221.417,1.074,218.996z M-5.227,242.754c-0.477-0.126-0.984-0.052-1.405,0.206l-4.052,2.496l0.811-3.062     c0.203-0.763-0.115-1.567-0.783-1.986c-5.102-3.197-7.637-8.139-6.459-12.586c1.609-6.07,9.562-9.25,17.729-7.086     c8.166,2.162,13.503,8.861,11.896,14.933C10.9,241.74,2.947,244.919-5.227,242.754z"
           id="path111" /><path
           fill="#46B0D3"
           d="M-1.16,223.8c-8.733-1.873-12.717,4.371-12.757,4.434c-0.174,0.282-0.087,0.65,0.193,0.826     c0.052,0.031,0.106,0.055,0.163,0.07c0.248,0.065,0.52-0.034,0.662-0.262c0.145-0.23,3.603-5.587,11.486-3.895     c0.324,0.07,0.643-0.137,0.713-0.461C-0.631,224.19-0.814,223.891-1.16,223.8z"
           id="path113" /></g><g
         id="g115"><path
           fill="#46B0D3"
           d="M227.882-7.003c-9.141-2.422-18.062,1.325-19.928,8.365c-1.42,5.357,1.662,11.074,7.242,14.572     l-1.967,7.42l7.891-4.859c0.002,0,0.004,0.002,0.008,0.002c9.141,2.422,18.062-1.324,19.928-8.366     C242.921,3.089,237.022-4.583,227.882-7.003z M221.581,16.755c-0.477-0.126-0.984-0.052-1.404,0.206l-4.053,2.496l0.811-3.062     c0.203-0.763-0.115-1.567-0.783-1.986c-5.102-3.197-7.637-8.139-6.459-12.586c1.609-6.07,9.562-9.25,17.729-7.086     c8.166,2.162,13.504,8.861,11.896,14.933C237.708,15.741,229.755,18.92,221.581,16.755z"
           id="path117" /><path
           fill="#46B0D3"
           d="M225.647-2.199c-8.732-1.873-12.717,4.371-12.756,4.434c-0.174,0.282-0.088,0.65,0.193,0.826     c0.051,0.031,0.105,0.055,0.162,0.07c0.248,0.065,0.52-0.034,0.662-0.262c0.145-0.23,3.604-5.587,11.486-3.895     c0.324,0.07,0.643-0.137,0.713-0.461C226.177-1.809,225.993-2.108,225.647-2.199z"
           id="path119" /></g><g
         id="g121"><path
           fill="#46B0D3"
           d="M184.835,139.609c-4.03,1.452-6.636,5.088-6.987,9.093c-2.823-2.861-7.149-4-11.18-2.549     c-5.53,1.993-8.397,8.09-6.406,13.62c2.598,7.209,15.018,13.196,27.616,16.784c0.001,0.004,0.002,0.006,0.003,0.008     c0.001-0.001,0.002-0.004,0.003-0.005c0.002,0,0.004,0.001,0.006,0.002c-0.001-0.002-0.002-0.005-0.003-0.008     c7.418-10.798,12.986-23.826,10.568-30.539C196.463,140.484,190.366,137.618,184.835,139.609z M187.128,174.464     c-13.619-4.055-23.216-9.869-25.172-15.302c-1.653-4.587,0.734-9.663,5.322-11.316c3.226-1.161,6.872-0.33,9.289,2.12     c0.493,0.499,1.231,0.666,1.892,0.429c0.659-0.238,1.121-0.837,1.183-1.536c0.3-3.429,2.578-6.395,5.804-7.557     c4.588-1.652,9.664,0.735,11.316,5.322C198.628,151.803,194.682,163.134,187.128,174.464z"
           id="path123" /><path
           fill="#46B0D3"
           d="M169.23,151.018c-5.127,2.242-4.017,7.619-4.005,7.673c0.07,0.323,0.391,0.529,0.714,0.458     c0.026-0.006,0.051-0.014,0.075-0.022c0.279-0.1,0.448-0.395,0.383-0.692c-0.04-0.181-0.923-4.464,3.314-6.316     c0.303-0.133,0.442-0.486,0.31-0.79C169.888,151.024,169.533,150.89,169.23,151.018z"
           id="path125" /></g><g
         id="g127"><path
           fill="#46B0D3"
           d="M229.184,98.514l-31.362-15.334c-0.702-0.344-1.552-0.052-1.896,0.651l-9.184,18.784     c-0.345,0.703-0.053,1.552,0.649,1.896l31.362,15.334c0.703,0.344,1.552,0.052,1.896-0.65l9.185-18.784     C230.178,99.707,229.887,98.857,229.184,98.514z M219.571,118.667c-0.054,0.108-0.183,0.153-0.29,0.1l-31.362-15.335     c-0.108-0.053-0.152-0.182-0.099-0.29l9.184-18.784c0.053-0.108,0.184-0.153,0.291-0.1l31.361,15.335     c0.107,0.053,0.152,0.182,0.1,0.29L219.571,118.667z"
           id="path129" /><path
           fill="#46B0D3"
           d="M234.16,95.711l-37.182-18.18c-1.125-0.55-2.483-0.084-3.033,1.041l-13.613,27.842     c-0.55,1.125-0.084,2.483,1.041,3.034l14.05,6.87c-0.511,0.914-1.199,1.983-1.72,2.188c-0.938,0.369-3.96,0.201-4.45,1.203     c-0.491,1.002,0.026,1.737,1.092,2.258c1.065,0.521,11.754,5.748,12.818,6.269c1.066,0.521,1.964,0.478,2.453-0.524     c0.491-1.002-1.497-3.285-1.783-4.251c-0.158-0.536,0.272-1.733,0.688-2.693l14.033,6.861c1.125,0.55,2.483,0.084,3.033-1.041     l13.614-27.842C235.751,97.62,235.284,96.262,234.16,95.711z M203.035,125.771c0.095,0.154,0.218,0.354,0.341,0.565     l-11.663-5.704c0.242-0.031,0.476-0.057,0.657-0.076c0.775-0.087,1.444-0.161,1.989-0.374c0.815-0.322,1.677-1.274,2.569-2.843     l5.861,2.867c-0.702,1.658-0.932,2.92-0.684,3.761C202.272,124.531,202.626,125.106,203.035,125.771z M219.97,125.796     c-0.113,0.231-0.394,0.327-0.625,0.214l-37.181-18.18c-0.231-0.113-0.329-0.393-0.216-0.625l13.613-27.842     c0.113-0.231,0.395-0.328,0.627-0.215l37.181,18.18c0.231,0.113,0.328,0.394,0.214,0.625L219.97,125.796z"
           id="path131" /></g><g
         id="g133"><path
           fill="#46B0D3"
           d="M2.248,98.514l-31.362-15.334c-0.702-0.344-1.552-0.052-1.896,0.651l-9.184,18.784     c-0.345,0.703-0.053,1.552,0.649,1.896l31.362,15.334c0.703,0.344,1.552,0.052,1.896-0.65l9.185-18.784     C3.242,99.707,2.951,98.857,2.248,98.514z M-7.365,118.667c-0.054,0.108-0.183,0.153-0.29,0.1l-31.362-15.335     c-0.108-0.053-0.152-0.182-0.099-0.29l9.184-18.784c0.053-0.108,0.184-0.153,0.291-0.1L1.72,99.592     c0.107,0.053,0.152,0.182,0.1,0.29L-7.365,118.667z"
           id="path135" /><path
           fill="#46B0D3"
           d="M7.224,95.711l-37.182-18.18c-1.125-0.55-2.483-0.084-3.033,1.041l-13.613,27.842     c-0.55,1.125-0.084,2.483,1.041,3.034l14.05,6.87c-0.511,0.914-1.199,1.983-1.72,2.188c-0.938,0.369-3.96,0.201-4.45,1.203     c-0.491,1.002,0.026,1.737,1.092,2.258c1.065,0.521,11.754,5.748,12.818,6.269c1.066,0.521,1.964,0.478,2.453-0.524     c0.491-1.002-1.497-3.285-1.783-4.251c-0.158-0.536,0.272-1.733,0.688-2.693l14.033,6.861c1.125,0.55,2.483,0.084,3.033-1.041     L8.265,98.745C8.815,97.62,8.348,96.262,7.224,95.711z M-23.901,125.771c0.095,0.154,0.218,0.354,0.341,0.565l-11.663-5.704     c0.242-0.031,0.476-0.057,0.657-0.076c0.775-0.087,1.444-0.161,1.989-0.374c0.815-0.322,1.677-1.274,2.569-2.843l5.861,2.867     c-0.702,1.658-0.932,2.92-0.684,3.761C-24.664,124.531-24.31,125.106-23.901,125.771z M-6.966,125.796     c-0.113,0.231-0.394,0.327-0.625,0.214l-37.181-18.18c-0.231-0.113-0.329-0.393-0.216-0.625l13.613-27.842     c0.113-0.231,0.395-0.328,0.627-0.215l37.181,18.18c0.231,0.113,0.328,0.394,0.214,0.625L-6.966,125.796z"
           id="path137" /></g><path
         fill="#46B0D3"
         d="M149.557,92.114l-1.171,1.17c-0.143-0.086-0.292-0.161-0.438-0.243l-8.334-8.334    c0.808-1.203,0.682-2.847-0.382-3.91c-1.208-1.208-3.168-1.208-4.376,0c-1.209,1.208-1.209,3.168,0,4.377    c1.062,1.063,2.707,1.189,3.909,0.381l6.131,6.13c-4.817-1.605-10.184-1.078-14.633,1.598l-1.169-1.169    c-0.886-0.886-2.321-0.886-3.207,0l-3.144,3.144c-0.885,0.885-0.886,2.321,0,3.207l1.257,1.256    c-3.106,5.494-3.025,12.286,0.235,17.713l-1.492,1.492c-0.885,0.885-0.885,2.322,0,3.207l3.144,3.145    c0.886,0.885,2.321,0.885,3.207,0l1.578-1.58c5.358,3.029,11.953,3.037,17.312,0.008l1.57,1.57c0.886,0.887,2.321,0.885,3.207,0    l3.144-3.143c0.886-0.887,0.886-2.321,0-3.207l-1.483-1.483c2.677-4.45,3.203-9.816,1.597-14.634l6.473,6.473    c-0.808,1.203-0.682,2.847,0.381,3.91c1.209,1.208,3.169,1.208,4.377,0c1.209-1.208,1.209-3.168,0-4.376    c-1.062-1.063-2.707-1.189-3.91-0.381l-8.664-8.664c-0.009-0.016-0.016-0.033-0.025-0.049l1.256-1.256    c0.886-0.885,0.887-2.321,0-3.207l-3.143-3.144C151.878,91.229,150.441,91.229,149.557,92.114z M124.018,97.191    c-0.183-0.182-0.183-0.479,0-0.662l3.143-3.143c0.183-0.183,0.479-0.183,0.662,0l3.144,3.144c0.182,0.182,0.182,0.479,0,0.662    l-3.144,3.143c-0.183,0.182-0.479,0.182-0.661,0L124.018,97.191z M127.822,124.003c-0.183,0.182-0.479,0.182-0.662,0l-3.143-3.144    c-0.183-0.183-0.183-0.479,0-0.661l3.144-3.144c0.183-0.183,0.479-0.183,0.661,0l3.144,3.143c0.183,0.183,0.183,0.479,0,0.661    L127.822,124.003z M154.634,120.198c0.182,0.183,0.183,0.479,0,0.662l-3.143,3.144c-0.183,0.182-0.48,0.182-0.663,0l-3.143-3.145    c-0.183-0.182-0.183-0.479,0-0.661l3.143-3.143c0.183-0.183,0.479-0.183,0.662,0L154.634,120.198z M153.099,116.118l-0.336-0.336    c-0.886-0.885-2.321-0.886-3.207,0l-3.144,3.144c-0.885,0.885-0.885,2.321,0,3.207l0.242,0.241    c-4.58,2.396-10.085,2.397-14.663,0.006l0.247-0.247c0.886-0.886,0.887-2.321,0-3.207l-3.143-3.144    c-0.886-0.885-2.322-0.885-3.207,0l-0.334,0.333c-2.61-4.654-2.687-10.348-0.223-15.064l0.556,0.556    c0.886,0.886,2.322,0.886,3.207,0l3.144-3.143c0.886-0.886,0.886-2.321,0-3.207l-0.65-0.65c4.794-2.692,10.688-2.693,15.479-0.005    l-0.655,0.655c-0.885,0.885-0.885,2.322,0,3.207l3.144,3.143c0.886,0.886,2.321,0.885,3.207,0l0.568-0.568    C155.796,105.757,155.715,111.458,153.099,116.118z M154.634,96.53c0.183,0.182,0.183,0.479,0,0.662l-3.144,3.144    c-0.183,0.182-0.479,0.182-0.662,0l-3.143-3.144c-0.183-0.182-0.183-0.479,0-0.662l3.144-3.144c0.183-0.183,0.479-0.183,0.661,0    L154.634,96.53z"
         id="path139" /><path
         fill="#46B0D3"
         d="M204.87,190.25l0.646,0.644c-0.049,0.079-0.089,0.161-0.135,0.241l-4.588,4.587    c-0.662-0.445-1.564-0.375-2.152,0.21c-0.665,0.665-0.665,1.743,0,2.408s1.744,0.665,2.41,0c0.585-0.586,0.654-1.489,0.21-2.15    l3.373-3.374c-0.882,2.649-0.593,5.604,0.88,8.053l-0.644,0.644c-0.488,0.487-0.488,1.276,0,1.766l1.729,1.729    c0.487,0.489,1.277,0.489,1.766,0l0.692-0.692c3.022,1.71,6.76,1.667,9.748-0.129l0.82,0.821c0.487,0.489,1.277,0.489,1.767,0    l1.729-1.729c0.488-0.489,0.488-1.278,0-1.766l-0.869-0.87c1.667-2.948,1.672-6.577,0.005-9.527l0.863-0.864    c0.489-0.486,0.488-1.277,0-1.765l-1.728-1.729c-0.49-0.488-1.279-0.488-1.767,0l-0.815,0.815    c-2.45-1.474-5.403-1.764-8.056-0.879l3.563-3.562c0.661,0.446,1.567,0.374,2.151-0.21c0.667-0.665,0.667-1.742,0-2.408    c-0.665-0.665-1.743-0.665-2.407,0c-0.586,0.586-0.655,1.49-0.211,2.151l-4.768,4.77c-0.009,0.003-0.019,0.008-0.026,0.013    l-0.692-0.689c-0.488-0.488-1.278-0.488-1.766,0l-1.729,1.729C204.382,188.972,204.382,189.764,204.87,190.25z M207.664,204.305    c-0.099,0.101-0.264,0.101-0.363,0l-1.73-1.729c-0.101-0.1-0.101-0.263,0-0.364l1.73-1.73c0.1-0.1,0.265-0.1,0.364,0l1.729,1.73    c0.1,0.102,0.1,0.265,0,0.364L207.664,204.305z M222.421,202.211c0.102,0.102,0.102,0.265,0,0.364l-1.73,1.729    c-0.1,0.101-0.264,0.101-0.364,0l-1.729-1.729c-0.1-0.1-0.1-0.264,0-0.364l1.729-1.73c0.101-0.1,0.265-0.1,0.363,0    L222.421,202.211z M220.326,187.456c0.101-0.1,0.265-0.102,0.364,0l1.73,1.73c0.102,0.1,0.102,0.265,0,0.363l-1.731,1.731    c-0.099,0.099-0.263,0.099-0.363,0l-1.729-1.731c-0.1-0.099-0.1-0.263,0-0.363L220.326,187.456z M218.081,188.3l-0.186,0.186    c-0.487,0.487-0.487,1.278,0,1.765l1.73,1.73c0.487,0.487,1.276,0.487,1.767,0l0.131-0.134c1.319,2.521,1.32,5.55,0.004,8.071    l-0.135-0.136c-0.49-0.489-1.279-0.489-1.767,0l-1.73,1.729c-0.487,0.487-0.487,1.277,0,1.766l0.184,0.184    c-2.561,1.437-5.695,1.479-8.29,0.123l0.306-0.306c0.488-0.489,0.488-1.279,0-1.766l-1.729-1.729    c-0.488-0.489-1.278-0.489-1.766,0l-0.358,0.357c-1.479-2.641-1.479-5.883-0.002-8.52l0.36,0.36c0.487,0.487,1.279,0.487,1.766,0    l1.73-1.73c0.487-0.486,0.487-1.277,0-1.765l-0.313-0.312C212.38,186.817,215.518,186.86,218.081,188.3z M207.301,187.456    c0.1-0.102,0.265-0.102,0.363,0l1.73,1.73c0.1,0.101,0.1,0.265,0,0.363l-1.729,1.731c-0.1,0.099-0.265,0.099-0.364,0l-1.73-1.731    c-0.101-0.099-0.101-0.264,0-0.363L207.301,187.456z"
         id="path141" /><g
         id="g143"><path
           fill="#46B0D3"
           d="M94.737,94.208h-5.425l-5.679-5.646h-9.476l-4.87,5.646h-9.812c-1.878,0-3.401,1.523-3.401,3.401v20.03     c0,1.879,1.523,3.403,3.401,3.403h35.261c1.879,0,3.401-1.523,3.401-3.403v-20.03C98.139,95.731,96.616,94.208,94.737,94.208z      M96.339,117.64c0,0.883-0.719,1.602-1.602,1.602H59.477c-0.883,0-1.602-0.719-1.602-1.602v-20.03     c0-0.883,0.719-1.602,1.602-1.602h9.812c0.523,0,1.021-0.228,1.362-0.624l4.333-5.022h7.908l5.152,5.123     c0.336,0.335,0.793,0.523,1.269,0.523h5.425c0.883,0,1.602,0.719,1.602,1.602V117.64z"
           id="path145" /><path
           fill="#46B0D3"
           d="M60.515,93.174h5.157c0.497,0,0.899-0.403,0.899-0.9s-0.402-0.9-0.899-0.9h-5.157     c-0.497,0-0.9,0.403-0.9,0.9S60.018,93.174,60.515,93.174z"
           id="path147" /><path
           fill="#46B0D3"
           d="M78.96,95.218c-6.008,0-10.879,4.871-10.879,10.879c0,6.009,4.871,10.878,10.879,10.878     s10.879-4.87,10.879-10.878C89.839,100.089,84.968,95.218,78.96,95.218z M78.96,115.176c-5.006,0-9.079-4.073-9.079-9.079     s4.073-9.079,9.079-9.079s9.079,4.073,9.079,9.079S83.966,115.176,78.96,115.176z"
           id="path149" /><path
           fill="#46B0D3"
           d="M77.589,99.899c-3.201,0.444-4.68,3.842-4.741,3.986c-0.13,0.305,0.013,0.656,0.317,0.786     c0.076,0.033,0.156,0.048,0.234,0.048c0.232,0,0.455-0.137,0.553-0.364c0.012-0.029,1.28-2.918,3.801-3.268     c0.328-0.045,0.558-0.349,0.512-0.677C78.22,100.082,77.909,99.852,77.589,99.899z"
           id="path151" /></g><path
         fill="#46B0D3"
         d="M128.792,61.278c-0.833,0-1.605,0.204-2.25,0.551V45.732c0-0.316-0.166-0.609-0.438-0.772    c-0.272-0.162-0.607-0.171-0.887-0.022l-11.861,6.337c-0.293,0.157-0.477,0.462-0.477,0.794v18.837    c0,0.049,0.021,0.092,0.028,0.139c0.093,1.74,1.857,3.131,4.038,3.131c2.24,0,4.056-1.464,4.056-3.27    c0-1.806-1.815-3.271-4.056-3.271c-0.84,0-1.619,0.206-2.266,0.558V57.21l10.061-5.376v12.675c0,0.013-0.004,0.026-0.004,0.039    c0,1.806,1.815,3.27,4.055,3.27c2.24,0,4.056-1.464,4.056-3.27C132.848,62.742,131.032,61.278,128.792,61.278z M116.946,69.437    c1.329,0,2.256,0.775,2.256,1.471s-0.927,1.47-2.256,1.47s-2.256-0.775-2.256-1.47S115.617,69.437,116.946,69.437z     M114.681,55.169v-2.56l10.061-5.375v2.56L114.681,55.169z M128.792,66.019c-1.312,0-2.228-0.754-2.251-1.442    c0-0.002,0.001-0.004,0.001-0.007v-0.057c0.031-0.686,0.943-1.435,2.25-1.435c1.329,0,2.256,0.775,2.256,1.471    S130.121,66.019,128.792,66.019z"
         id="path153" /><g
         id="g155"><path
           fill="#46B0D3"
           d="M197.492,31.13l-8.582-8.531c-1.332-1.325-3.485-1.318-4.811,0.014l-20.762,20.885     c-3.561,3.582-9.129,21.888-9.129,21.888s19.462-5.469,22.535-8.561l20.762-20.885C198.83,34.608,198.823,32.454,197.492,31.13z      M187.642,23.875l8.581,8.531c0.626,0.622,0.63,1.639,0.007,2.265l-5.712,5.745l-10.853-10.789l5.711-5.745     C185.999,23.255,187.016,23.252,187.642,23.875z M162.64,60.925l-3.787-3.765c1.988-5.492,4.253-10.876,5.762-12.395     l13.781-13.862l2.195,2.182l-14.177,14.26l0.851,0.846l14.177-14.26l4.818,4.79l-14.096,14.18l0.851,0.846l14.096-14.18     l2.139,2.126l-13.781,13.863C174.222,56.809,168.593,58.966,162.64,60.925z"
           id="path157" /><path
           fill="#46B0D3"
           d="M185.756,28.187l6.142,6.105c0.234,0.233,0.614,0.231,0.848-0.003c0.234-0.235,0.233-0.615-0.002-0.849     l-6.142-6.105c-0.234-0.233-0.614-0.232-0.849,0.003C185.52,27.574,185.521,27.954,185.756,28.187z"
           id="path159" /></g><path
         id="Мегафон"
         fill="#46B0D3"
         d="M100.154,38.322c0,0-14.078,1.544-19.074-0.212c-3.135-1.101-6.918-2.994-9.642-4.446    c-2.146-1.145-3.632-2.017-3.632-2.017c-1.658-0.884-3.719-0.257-4.604,1.4l-0.276,0.518l-2.661,4.988l-0.276,0.518    c-0.884,1.658-0.257,3.718,1.401,4.603c0,0,0.87,0.42,2.204,1.11c-1.545,2.897-5.093,9.547-5.69,10.667    c-0.768,1.439-1.736,3.553-0.112,4.418c1.623,0.866,3.912,2.087,5.718,3.05c1.806,0.964,3.045,0.092,3.786-2.458    c0.742-2.551-0.104-4.444,1.395-7.254c0.826-1.548,1.642-3.165,2.209-4.307c1.155,0.722,2.273,1.467,3.252,2.199    c4.241,3.172,10.799,15.724,10.799,15.724c1.657,0.884,3.718,0.257,4.602-1.4l4.671-8.756l2.661-4.988l4.671-8.756    C102.438,41.267,101.812,39.206,100.154,38.322z M65.567,59.959c-0.374,1.282-0.741,1.538-0.735,1.543    c-0.016,0-0.162-0.003-0.476-0.17l-5.65-3.015c0.006-0.218,0.118-0.768,0.785-2.019l5.563-10.428l4.222,2.252    c-0.562,1.132-1.367,2.726-2.173,4.238c-1.086,2.037-1.16,3.691-1.225,5.152C65.84,58.385,65.806,59.138,65.567,59.959z     M65.935,43.981c-1.99-1.062-3.462-1.782-3.723-1.909c-0.76-0.422-1.045-1.382-0.634-2.153l0.276-0.518l2.661-4.988l0.276-0.518    c0.411-0.771,1.367-1.068,2.14-0.673c0.251,0.146,1.669,0.968,3.659,2.03c2.708,1.444,6.623,3.408,9.893,4.557    c3.286,1.154,9.696,1.042,14.377,0.758l-10.994,20.61c-2.372-4.046-5.849-9.433-8.637-11.519    C72.454,47.583,68.643,45.425,65.935,43.981z M95.295,50.833l-2.66,4.988l-4.671,8.756c-0.341,0.64-1.058,0.953-1.735,0.814    c-0.35-0.655-0.929-1.719-1.654-2.99l11.697-21.929c1.46-0.105,2.666-0.217,3.405-0.291c0.491,0.484,0.631,1.255,0.29,1.895    L95.295,50.833z" /><g
         id="Тележка"><path
           fill="#46B0D3"
           d="M143.467,31.727c-1.17,1.792-0.667,4.193,1.126,5.362c1.791,1.17,4.192,0.667,5.362-1.126     c1.169-1.792,0.666-4.193-1.126-5.363C147.037,29.43,144.637,29.935,143.467,31.727z M148.281,34.87     c-0.565,0.866-1.729,1.11-2.596,0.545c-0.865-0.565-1.109-1.729-0.544-2.594s1.729-1.111,2.594-0.546     C148.603,32.84,148.845,34.005,148.281,34.87z"
           id="path163" /><path
           fill="#46B0D3"
           d="M151.439,19.516c-1.17,1.792-0.666,4.192,1.127,5.362c1.791,1.169,4.191,0.666,5.362-1.125     c1.169-1.792,0.664-4.194-1.127-5.363C155.011,17.219,152.608,17.724,151.439,19.516z M156.253,22.659     c-0.565,0.866-1.728,1.109-2.595,0.543c-0.865-0.565-1.109-1.728-0.544-2.594c0.564-0.865,1.729-1.11,2.594-0.545     C156.574,20.629,156.818,21.793,156.253,22.659z"
           id="path165" /><path
           fill="#46B0D3"
           d="M136.054,0.751c-0.632,0.096-1.174,0.483-1.609,1.15l-13.82,21.168c-2.311-1.094-4.907-1.935-6.224,0.082     l-1.068,1.635c-0.951-0.16-1.954,0.239-2.516,1.1c-0.757,1.158-0.431,2.711,0.729,3.469c1.158,0.756,2.713,0.43,3.468-0.729     c0.563-0.861,0.524-1.938-0.005-2.747l1.068-1.635c0.576-0.883,2.943,0.231,5.117,1.345c1.917,0.982,7.166,3.495,10.998,5.33     c1.902,0.912,3.51,1.681,4.301,2.066c3.283,1.603,4.975-0.988,5.695-2.093l10.092-15.456c0.301-0.461,0.172-1.082-0.291-1.383     c-0.463-0.303-1.083-0.171-1.385,0.29l-10.09,15.456c-1.021,1.563-1.684,2.103-3.146,1.389c-0.456-0.223-1.189-0.577-2.091-1.009     c1.842-3.628,8.466-16.69,9.178-18.234c0.981-2.127,0.799-4.549-0.434-5.758c-1.009-0.992-3.263-2.754-4.465-3.635     c-0.215-0.158-0.431-0.335-0.646-0.515C138.087,1.357,137.154,0.585,136.054,0.751z M137.635,3.579     c0.246,0.204,0.494,0.409,0.74,0.589c1.358,0.99,3.435,2.651,4.246,3.447c0.54,0.529,0.698,2.015,0.019,3.493     c-0.69,1.497-7.374,14.675-9.165,18.207c-0.141-0.066-0.277-0.132-0.419-0.2c-3.629-1.737-8.524-4.082-10.631-5.145     l13.693-20.976c0.144-0.22,0.234-0.264,0.235-0.266C136.586,2.711,137.269,3.275,137.635,3.579z"
           id="path167" /></g><g
         id="g169"><path
           fill="#46B0D3"
           d="M28.799,37.486H-3.148c-1.878,0-3.401,1.523-3.401,3.401v22.937c0,1.879,1.523,3.401,3.401,3.401h31.947     c1.878,0,3.401-1.522,3.401-3.401V40.888C32.201,39.009,30.677,37.486,28.799,37.486z M-3.148,39.286h31.947     c0.883,0,1.602,0.719,1.602,1.602v2.416H-4.75v-2.416C-4.75,40.005-4.031,39.286-3.148,39.286z M28.799,65.426H-3.148     c-0.883,0-1.602-0.719-1.602-1.602V44.503h35.15v19.321C30.401,64.707,29.682,65.426,28.799,65.426z"
           id="path171" /><path
           fill="#46B0D3"
           d="M0.034,59.07h11.083V47.987H0.034V59.07z M1.833,49.787h7.483v7.483H1.833V49.787z"
           id="path173" /><rect
           x="14.701"
           y="47.837"
           fill="#46B0D3"
           width="9.833"
           height="1.8"
           id="rect175" /><rect
           x="14.701"
           y="51.087"
           fill="#46B0D3"
           width="9.833"
           height="1.8"
           id="rect177" /><rect
           x="14.701"
           y="54.089"
           fill="#46B0D3"
           width="9.833"
           height="1.8"
           id="rect179" /><rect
           x="14.701"
           y="57.337"
           fill="#46B0D3"
           width="9.833"
           height="1.8"
           id="rect181" /></g><g
         id="g183"><path
           fill="#46B0D3"
           d="M255.777,37.486H223.83c-1.878,0-3.401,1.523-3.401,3.401v22.937c0,1.879,1.523,3.401,3.401,3.401h31.947     c1.878,0,3.401-1.522,3.401-3.401V40.888C259.179,39.009,257.655,37.486,255.777,37.486z M223.83,39.286h31.947     c0.883,0,1.602,0.719,1.602,1.602v2.416h-35.15v-2.416C222.229,40.005,222.947,39.286,223.83,39.286z M255.777,65.426H223.83     c-0.883,0-1.602-0.719-1.602-1.602V44.503h35.15v19.321C257.379,64.707,256.66,65.426,255.777,65.426z"
           id="path185" /><path
           fill="#46B0D3"
           d="M227.012,59.07h11.083V47.987h-11.083V59.07z M228.812,49.787h7.483v7.483h-7.483V49.787z"
           id="path187" /><rect
           x="241.679"
           y="47.837"
           fill="#46B0D3"
           width="9.833"
           height="1.8"
           id="rect189" /><rect
           x="241.679"
           y="51.087"
           fill="#46B0D3"
           width="9.833"
           height="1.8"
           id="rect191" /><rect
           x="241.679"
           y="54.089"
           fill="#46B0D3"
           width="9.833"
           height="1.8"
           id="rect193" /><rect
           x="241.679"
           y="57.337"
           fill="#46B0D3"
           width="9.833"
           height="1.8"
           id="rect195" /></g></g></g></svg>